<?xml version="1.0" encoding="UTF-8"?>
<!--Generator: Apple Native CoreSVG 123-->
<!DOCTYPE svg
PUBLIC "-//W3C//DTD SVG 1.1//EN"
       "http://www.w3.org/Graphics/SVG/1.1/DTD/svg11.dtd">
<svg version="1.1" xmlns="http://www.w3.org/2000/svg" xmlns:xlink="http://www.w3.org/1999/xlink" width="3300" height="2200">
 <!--glyph: "uni100227.medium", point size: 100.000000, font version: "Version 15.0d7e11", template writer version: "5"-->
 <g id="Notes">
  <rect height="2200" id="artboard" style="fill:white;opacity:1" width="3300" x="0" y="0"/>
  <line id="" style="fill:none;stroke:black;opacity:1;stroke-width:0.5;" x1="263" x2="3036" y1="292" y2="292"/>
  <text style="stroke:none;fill:black;font-family:-apple-system,&quot;SF Pro Display&quot;,&quot;SF Pro Text&quot;,Helvetica,sans-serif;font-weight:bold;" transform="matrix(1 0 0 1 263 322)">Weight/Scale Variations</text>
  <text style="stroke:none;fill:black;font-family:-apple-system,&quot;SF Pro Display&quot;,&quot;SF Pro Text&quot;,Helvetica,sans-serif;text-anchor:middle;" transform="matrix(1 0 0 1 559.711 322)">Ultralight</text>
  <text style="stroke:none;fill:black;font-family:-apple-system,&quot;SF Pro Display&quot;,&quot;SF Pro Text&quot;,Helvetica,sans-serif;text-anchor:middle;" transform="matrix(1 0 0 1 856.422 322)">Thin</text>
  <text style="stroke:none;fill:black;font-family:-apple-system,&quot;SF Pro Display&quot;,&quot;SF Pro Text&quot;,Helvetica,sans-serif;text-anchor:middle;" transform="matrix(1 0 0 1 1153.13 322)">Light</text>
  <text style="stroke:none;fill:black;font-family:-apple-system,&quot;SF Pro Display&quot;,&quot;SF Pro Text&quot;,Helvetica,sans-serif;text-anchor:middle;" transform="matrix(1 0 0 1 1449.84 322)">Regular</text>
  <text style="stroke:none;fill:black;font-family:-apple-system,&quot;SF Pro Display&quot;,&quot;SF Pro Text&quot;,Helvetica,sans-serif;text-anchor:middle;" transform="matrix(1 0 0 1 1746.56 322)">Medium</text>
  <text style="stroke:none;fill:black;font-family:-apple-system,&quot;SF Pro Display&quot;,&quot;SF Pro Text&quot;,Helvetica,sans-serif;text-anchor:middle;" transform="matrix(1 0 0 1 2043.27 322)">Semibold</text>
  <text style="stroke:none;fill:black;font-family:-apple-system,&quot;SF Pro Display&quot;,&quot;SF Pro Text&quot;,Helvetica,sans-serif;text-anchor:middle;" transform="matrix(1 0 0 1 2339.98 322)">Bold</text>
  <text style="stroke:none;fill:black;font-family:-apple-system,&quot;SF Pro Display&quot;,&quot;SF Pro Text&quot;,Helvetica,sans-serif;text-anchor:middle;" transform="matrix(1 0 0 1 2636.69 322)">Heavy</text>
  <text style="stroke:none;fill:black;font-family:-apple-system,&quot;SF Pro Display&quot;,&quot;SF Pro Text&quot;,Helvetica,sans-serif;text-anchor:middle;" transform="matrix(1 0 0 1 2933.4 322)">Black</text>
  <line id="" style="fill:none;stroke:black;opacity:1;stroke-width:0.5;" x1="263" x2="3036" y1="1903" y2="1903"/>
  <g id="" transform="matrix(1 0 0 1 263 1933)">
   <path d="M 9.24805 0.830078 C 13.5547 0.830078 17.1387 -2.74414 17.1387 -7.05078 C 17.1387 -11.3574 13.5449 -14.9316 9.23828 -14.9316 C 4.94141 -14.9316 1.36719 -11.3574 1.36719 -7.05078 C 1.36719 -2.74414 4.95117 0.830078 9.24805 0.830078 Z M 9.24805 -0.654297 C 5.70312 -0.654297 2.87109 -3.49609 2.87109 -7.05078 C 2.87109 -10.6055 5.69336 -13.4473 9.23828 -13.4473 C 12.793 -13.4473 15.6348 -10.6055 15.6445 -7.05078 C 15.6543 -3.49609 12.8027 -0.654297 9.24805 -0.654297 Z M 9.22852 -3.42773 C 9.69727 -3.42773 9.9707 -3.74023 9.9707 -4.25781 L 9.9707 -6.31836 L 12.1973 -6.31836 C 12.6953 -6.31836 13.0371 -6.57227 13.0371 -7.04102 C 13.0371 -7.51953 12.7148 -7.7832 12.1973 -7.7832 L 9.9707 -7.7832 L 9.9707 -10.0098 C 9.9707 -10.5273 9.69727 -10.8496 9.22852 -10.8496 C 8.75977 -10.8496 8.50586 -10.5078 8.50586 -10.0098 L 8.50586 -7.7832 L 6.29883 -7.7832 C 5.78125 -7.7832 5.44922 -7.51953 5.44922 -7.04102 C 5.44922 -6.57227 5.80078 -6.31836 6.29883 -6.31836 L 8.50586 -6.31836 L 8.50586 -4.25781 C 8.50586 -3.75977 8.75977 -3.42773 9.22852 -3.42773 Z"/>
  </g>
  <g id="" transform="matrix(1 0 0 1 281.506 1933)">
   <path d="M 11.709 2.91016 C 17.1582 2.91016 21.6699 -1.60156 21.6699 -7.05078 C 21.6699 -12.4902 17.1484 -17.0117 11.6992 -17.0117 C 6.25977 -17.0117 1.74805 -12.4902 1.74805 -7.05078 C 1.74805 -1.60156 6.26953 2.91016 11.709 2.91016 Z M 11.709 1.25 C 7.09961 1.25 3.41797 -2.44141 3.41797 -7.05078 C 3.41797 -11.6504 7.08984 -15.3516 11.6992 -15.3516 C 16.3086 -15.3516 20 -11.6504 20.0098 -7.05078 C 20.0195 -2.44141 16.3184 1.25 11.709 1.25 Z M 11.6895 -2.41211 C 12.207 -2.41211 12.5195 -2.77344 12.5195 -3.33984 L 12.5195 -6.23047 L 15.5762 -6.23047 C 16.123 -6.23047 16.5039 -6.51367 16.5039 -7.03125 C 16.5039 -7.55859 16.1426 -7.86133 15.5762 -7.86133 L 12.5195 -7.86133 L 12.5195 -10.9277 C 12.5195 -11.5039 12.207 -11.8555 11.6895 -11.8555 C 11.1719 -11.8555 10.8789 -11.4844 10.8789 -10.9277 L 10.8789 -7.86133 L 7.83203 -7.86133 C 7.26562 -7.86133 6.89453 -7.55859 6.89453 -7.03125 C 6.89453 -6.51367 7.28516 -6.23047 7.83203 -6.23047 L 10.8789 -6.23047 L 10.8789 -3.33984 C 10.8789 -2.79297 11.1719 -2.41211 11.6895 -2.41211 Z"/>
  </g>
  <g id="" transform="matrix(1 0 0 1 304.924 1933)">
   <path d="M 14.9707 5.67383 C 21.9336 5.67383 27.6953 -0.078125 27.6953 -7.04102 C 27.6953 -14.0039 21.9238 -19.7559 14.9609 -19.7559 C 8.00781 -19.7559 2.25586 -14.0039 2.25586 -7.04102 C 2.25586 -0.078125 8.01758 5.67383 14.9707 5.67383 Z M 14.9707 3.85742 C 8.93555 3.85742 4.08203 -1.00586 4.08203 -7.04102 C 4.08203 -13.0762 8.92578 -17.9395 14.9609 -17.9395 C 21.0059 -17.9395 25.8594 -13.0762 25.8691 -7.04102 C 25.8789 -1.00586 21.0156 3.85742 14.9707 3.85742 Z M 14.9512 -1.06445 C 15.5176 -1.06445 15.8691 -1.45508 15.8691 -2.06055 L 15.8691 -6.13281 L 20.1074 -6.13281 C 20.6934 -6.13281 21.1133 -6.46484 21.1133 -7.02148 C 21.1133 -7.59766 20.7227 -7.93945 20.1074 -7.93945 L 15.8691 -7.93945 L 15.8691 -12.1875 C 15.8691 -12.8027 15.5176 -13.1934 14.9512 -13.1934 C 14.3848 -13.1934 14.0625 -12.7832 14.0625 -12.1875 L 14.0625 -7.93945 L 9.83398 -7.93945 C 9.21875 -7.93945 8.80859 -7.59766 8.80859 -7.02148 C 8.80859 -6.46484 9.23828 -6.13281 9.83398 -6.13281 L 14.0625 -6.13281 L 14.0625 -2.06055 C 14.0625 -1.47461 14.3848 -1.06445 14.9512 -1.06445 Z"/>
  </g>
  <text style="stroke:none;fill:black;font-family:-apple-system,&quot;SF Pro Display&quot;,&quot;SF Pro Text&quot;,Helvetica,sans-serif;font-weight:bold;" transform="matrix(1 0 0 1 263 1953)">Design Variations</text>
  <text style="stroke:none;fill:black;font-family:-apple-system,&quot;SF Pro Display&quot;,&quot;SF Pro Text&quot;,Helvetica,sans-serif;" transform="matrix(1 0 0 1 263 1971)">Symbols are supported in up to nine weights and three scales.</text>
  <text style="stroke:none;fill:black;font-family:-apple-system,&quot;SF Pro Display&quot;,&quot;SF Pro Text&quot;,Helvetica,sans-serif;" transform="matrix(1 0 0 1 263 1989)">For optimal layout with text and other symbols, vertically align</text>
  <text style="stroke:none;fill:black;font-family:-apple-system,&quot;SF Pro Display&quot;,&quot;SF Pro Text&quot;,Helvetica,sans-serif;" transform="matrix(1 0 0 1 263 2007)">symbols with the adjacent text.</text>
  <rect height="14" id="" style="fill:#00AEEF;stroke:none;opacity:0.4;" width="3" x="776" y="1919"/>
  <g id="" transform="matrix(1 0 0 1 779 1933)">
   <path d="M 10.5273 0 L 12.373 0 L 7.17773 -14.0918 L 5.43945 -14.0918 L 0.244141 0 L 2.08984 0 L 3.50586 -4.0332 L 9.11133 -4.0332 Z M 6.2793 -11.9531 L 6.33789 -11.9531 L 8.59375 -5.52734 L 4.02344 -5.52734 Z"/>
  </g>
  <rect height="14" id="" style="fill:#00AEEF;stroke:none;opacity:0.4;" width="3" x="791.617" y="1919"/>
  <text style="stroke:none;fill:black;font-family:-apple-system,&quot;SF Pro Display&quot;,&quot;SF Pro Text&quot;,Helvetica,sans-serif;font-weight:bold;" transform="matrix(1 0 0 1 776 1953)">Margins</text>
  <text style="stroke:none;fill:black;font-family:-apple-system,&quot;SF Pro Display&quot;,&quot;SF Pro Text&quot;,Helvetica,sans-serif;" transform="matrix(1 0 0 1 776 1971)">Leading and trailing margins on the left and right side of each symbol</text>
  <text style="stroke:none;fill:black;font-family:-apple-system,&quot;SF Pro Display&quot;,&quot;SF Pro Text&quot;,Helvetica,sans-serif;" transform="matrix(1 0 0 1 776 1989)">can be adjusted by modifying the width of the blue rectangles.</text>
  <text style="stroke:none;fill:black;font-family:-apple-system,&quot;SF Pro Display&quot;,&quot;SF Pro Text&quot;,Helvetica,sans-serif;" transform="matrix(1 0 0 1 776 2007)">Modifications are automatically applied proportionally to all</text>
  <text style="stroke:none;fill:black;font-family:-apple-system,&quot;SF Pro Display&quot;,&quot;SF Pro Text&quot;,Helvetica,sans-serif;" transform="matrix(1 0 0 1 776 2025)">scales and weights.</text>
  <g id="" transform="matrix(1 0 0 1 1289 1933)">
   <path d="M 2.83203 3.11523 L 4.375 4.6582 C 5.22461 5.48828 6.19141 5.41992 7.06055 4.46289 L 17.2754 -6.66016 C 17.7051 -6.36719 18.0957 -6.37695 18.5645 -6.47461 L 19.6094 -6.68945 L 20.3027 -5.99609 L 20.2539 -5.47852 C 20.1855 -4.95117 20.3516 -4.53125 20.8496 -4.0332 L 21.6602 -3.22266 C 22.168 -2.71484 22.8223 -2.68555 23.3008 -3.16406 L 26.5527 -6.41602 C 27.0312 -6.89453 27.0117 -7.54883 26.5039 -8.05664 L 25.6836 -8.87695 C 25.1855 -9.375 24.7754 -9.55078 24.2383 -9.47266 L 23.7109 -9.41406 L 23.0566 -10.0781 L 23.3398 -11.2207 C 23.4863 -11.7871 23.3398 -12.2559 22.7148 -12.8613 L 20.3027 -15.2539 C 16.7578 -18.7793 12.2266 -18.6719 9.11133 -15.5371 C 8.69141 -15.1074 8.64258 -14.5215 8.91602 -14.0918 C 9.15039 -13.7207 9.62891 -13.4961 10.2734 -13.6621 C 11.7871 -14.043 13.3008 -13.9258 14.7852 -12.9199 L 14.1602 -11.3379 C 13.9258 -10.752 13.9453 -10.2734 14.1797 -9.83398 L 3.01758 0.439453 C 2.08008 1.30859 1.97266 2.25586 2.83203 3.11523 Z M 10.6738 -15.1465 C 13.3398 -17.1387 16.6504 -16.8262 19.0527 -14.4141 L 21.6797 -11.8066 C 21.9141 -11.5723 21.9434 -11.3867 21.8848 -11.0938 L 21.5039 -9.53125 L 23.0762 -7.95898 L 24.043 -8.04688 C 24.3262 -8.07617 24.4141 -8.05664 24.6387 -7.83203 L 25.2637 -7.20703 L 22.5098 -4.46289 L 21.8848 -5.07812 C 21.6602 -5.30273 21.6406 -5.40039 21.6699 -5.68359 L 21.7578 -6.64062 L 20.1953 -8.20312 L 18.5742 -7.89062 C 18.291 -7.83203 18.1445 -7.83203 17.9102 -8.07617 L 15.7324 -10.2539 C 15.5078 -10.4883 15.4785 -10.625 15.6055 -10.9473 L 16.5527 -13.2227 C 14.9512 -14.7559 12.8418 -15.6055 10.8008 -14.9512 C 10.7129 -14.9219 10.6445 -14.9414 10.6152 -14.9805 C 10.5859 -15.0293 10.5859 -15.0781 10.6738 -15.1465 Z M 4.10156 2.41211 C 3.61328 1.91406 3.78906 1.61133 4.12109 1.30859 L 15.0781 -8.80859 L 16.3086 -7.57812 L 6.15234 3.34961 C 5.84961 3.68164 5.46875 3.7793 5.06836 3.37891 Z"/>
  </g>
  <text style="stroke:none;fill:black;font-family:-apple-system,&quot;SF Pro Display&quot;,&quot;SF Pro Text&quot;,Helvetica,sans-serif;font-weight:bold;" transform="matrix(1 0 0 1 1289 1953)">Exporting</text>
  <text style="stroke:none;fill:black;font-family:-apple-system,&quot;SF Pro Display&quot;,&quot;SF Pro Text&quot;,Helvetica,sans-serif;" transform="matrix(1 0 0 1 1289 1971)">Symbols should be outlined when exporting to ensure the</text>
  <text style="stroke:none;fill:black;font-family:-apple-system,&quot;SF Pro Display&quot;,&quot;SF Pro Text&quot;,Helvetica,sans-serif;" transform="matrix(1 0 0 1 1289 1989)">design is preserved when submitting to Xcode.</text>
  <text id="template-version" style="stroke:none;fill:black;font-family:-apple-system,&quot;SF Pro Display&quot;,&quot;SF Pro Text&quot;,Helvetica,sans-serif;text-anchor:end;" transform="matrix(1 0 0 1 3036 1933)">Template v.1.0</text>
  <text style="stroke:none;fill:black;font-family:-apple-system,&quot;SF Pro Display&quot;,&quot;SF Pro Text&quot;,Helvetica,sans-serif;text-anchor:end;" transform="matrix(1 0 0 1 3036 1951)">Generated from tray.and.arrow.down</text>
  <text style="stroke:none;fill:black;font-family:-apple-system,&quot;SF Pro Display&quot;,&quot;SF Pro Text&quot;,Helvetica,sans-serif;text-anchor:end;" transform="matrix(1 0 0 1 3036 1969)">Typeset at 100 points</text>
  <text style="stroke:none;fill:black;font-family:-apple-system,&quot;SF Pro Display&quot;,&quot;SF Pro Text&quot;,Helvetica,sans-serif;" transform="matrix(1 0 0 1 263 726)">Small</text>
  <text style="stroke:none;fill:black;font-family:-apple-system,&quot;SF Pro Display&quot;,&quot;SF Pro Text&quot;,Helvetica,sans-serif;" transform="matrix(1 0 0 1 263 1156)">Medium</text>
  <text style="stroke:none;fill:black;font-family:-apple-system,&quot;SF Pro Display&quot;,&quot;SF Pro Text&quot;,Helvetica,sans-serif;" transform="matrix(1 0 0 1 263 1586)">Large</text>
 </g>
 <g id="Guides">
  <g id="H-reference" style="fill:#27AAE1;stroke:none;" transform="matrix(1 0 0 1 339 696)">
   <path d="M 54.9316 0 L 57.666 0 L 30.5664 -70.459 L 28.0762 -70.459 L 0.976562 0 L 3.66211 0 L 12.9395 -24.4629 L 45.7031 -24.4629 Z M 29.1992 -67.0898 L 29.4434 -67.0898 L 44.8242 -26.709 L 13.8184 -26.709 Z"/>
  </g>
  <line id="Baseline-S" style="fill:none;stroke:#27AAE1;opacity:1;stroke-width:0.577;" x1="263" x2="3036" y1="696" y2="696"/>
  <line id="Capline-S" style="fill:none;stroke:#27AAE1;opacity:1;stroke-width:0.577;" x1="263" x2="3036" y1="625.541" y2="625.541"/>
  <g id="H-reference" style="fill:#27AAE1;stroke:none;" transform="matrix(1 0 0 1 339 1126)">
   <path d="M 54.9316 0 L 57.666 0 L 30.5664 -70.459 L 28.0762 -70.459 L 0.976562 0 L 3.66211 0 L 12.9395 -24.4629 L 45.7031 -24.4629 Z M 29.1992 -67.0898 L 29.4434 -67.0898 L 44.8242 -26.709 L 13.8184 -26.709 Z"/>
  </g>
  <line id="Baseline-M" style="fill:none;stroke:#27AAE1;opacity:1;stroke-width:0.577;" x1="263" x2="3036" y1="1126" y2="1126"/>
  <line id="Capline-M" style="fill:none;stroke:#27AAE1;opacity:1;stroke-width:0.577;" x1="263" x2="3036" y1="1055.54" y2="1055.54"/>
  <g id="H-reference" style="fill:#27AAE1;stroke:none;" transform="matrix(1 0 0 1 339 1556)">
   <path d="M 54.9316 0 L 57.666 0 L 30.5664 -70.459 L 28.0762 -70.459 L 0.976562 0 L 3.66211 0 L 12.9395 -24.4629 L 45.7031 -24.4629 Z M 29.1992 -67.0898 L 29.4434 -67.0898 L 44.8242 -26.709 L 13.8184 -26.709 Z"/>
  </g>
  <line id="Baseline-L" style="fill:none;stroke:#27AAE1;opacity:1;stroke-width:0.577;" x1="263" x2="3036" y1="1556" y2="1556"/>
  <line id="Capline-L" style="fill:none;stroke:#27AAE1;opacity:1;stroke-width:0.577;" x1="263" x2="3036" y1="1485.54" y2="1485.54"/>
  <rect height="119.336" id="left-margin" style="fill:#00AEEF;stroke:none;opacity:0.4;" width="12.4512" x="1379.82" y="1030.79"/>
  <rect height="119.336" id="right-margin" style="fill:#00AEEF;stroke:none;opacity:0.4;" width="12.4512" x="1507.41" y="1030.79"/>
 </g>
 <g id="Symbols">
  <g id="Black-L" transform="matrix(1 0 0 1 2841.51 1556)">
   <path d="M 91.8945 -37.3047 C 94.043 -37.3047 96.2402 -38.0859 98.3887 -40.1367 L 116.211 -57.1777 C 117.578 -58.4961 118.311 -59.9121 118.311 -61.9141 C 118.311 -65.8203 114.99 -68.5059 111.475 -68.5059 C 109.424 -68.5059 107.617 -67.627 106.299 -66.2109 L 101.465 -60.9863 L 99.2188 -56.5918 L 100.684 -66.1621 L 100.684 -104.785 C 100.684 -109.424 96.875 -113.477 91.8945 -113.477 C 86.9141 -113.477 83.0566 -109.424 83.0566 -104.785 L 83.0566 -66.1621 L 84.5703 -56.5918 L 82.2754 -60.9863 L 77.4902 -66.2109 C 76.123 -67.627 74.3164 -68.5059 72.2656 -68.5059 C 68.7988 -68.5059 65.4785 -65.8203 65.4785 -61.9141 C 65.4785 -59.9121 66.1621 -58.4961 67.5293 -57.1777 L 85.4004 -40.1367 C 87.5488 -38.0859 89.6973 -37.3047 91.8945 -37.3047 Z M 39.9902 33.1055 L 143.799 33.1055 C 159.082 33.1055 167.725 24.5117 167.725 9.32617 L 167.725 -27.002 C 167.725 -36.6699 166.797 -42.5293 163.135 -47.9492 L 145.654 -73.3398 C 137.354 -85.4492 131.543 -89.7461 118.652 -89.7461 L 112.109 -89.7461 L 112.109 -74.6094 L 118.945 -74.6094 C 122.705 -74.6094 125.83 -72.0215 128.027 -68.7988 L 146.924 -40.4785 C 148.193 -38.6719 147.461 -37.5488 144.922 -37.5488 L 107.764 -37.5488 C 104.199 -37.5488 102.832 -35.6445 102.832 -33.4473 L 102.832 -33.3008 C 102.832 -28.1738 98.9746 -22.2168 91.8945 -22.2168 C 84.8145 -22.2168 80.957 -28.1738 80.957 -33.3008 L 80.957 -33.4473 C 80.957 -35.6445 79.5898 -37.5488 75.9766 -37.5488 L 38.8672 -37.5488 C 36.2793 -37.5488 35.6934 -38.7207 36.9141 -40.4785 L 55.8105 -68.7988 C 58.0078 -72.0215 61.1328 -74.6094 64.8926 -74.6094 L 71.6797 -74.6094 L 71.6797 -89.7461 L 65.1367 -89.7461 C 52.2461 -89.7461 46.582 -85.5957 38.1836 -73.3398 L 20.6055 -47.9492 C 16.8945 -42.4805 16.0645 -36.6699 16.0645 -27.002 L 16.0645 9.32617 C 16.0645 24.5117 24.7559 33.1055 39.9902 33.1055 Z M 41.9922 12.8906 C 37.793 12.8906 35.5957 10.9863 35.5957 6.44531 L 35.5957 -20.5078 L 66.1621 -20.5078 C 69.7266 -10.9375 79.2969 -3.75977 91.8945 -3.75977 C 104.443 -3.75977 114.014 -10.9375 117.578 -20.5078 L 148.145 -20.5078 L 148.145 6.44531 C 148.145 10.9863 145.996 12.8906 141.748 12.8906 Z"/>
  </g>
  <g id="Heavy-L" transform="matrix(1 0 0 1 2545.23 1556)">
   <path d="M 91.4551 -35.5957 C 93.3594 -35.5957 95.2637 -36.2793 97.168 -38.0859 L 115.918 -56.1523 C 117.188 -57.3242 117.822 -58.6426 117.822 -60.4492 C 117.822 -63.916 114.893 -66.3574 111.67 -66.3574 C 109.863 -66.3574 108.252 -65.625 107.031 -64.3066 L 100.928 -57.7637 L 97.998 -53.1738 L 99.2188 -62.6465 L 99.2188 -104.59 C 99.2188 -108.691 95.8008 -112.256 91.4551 -112.256 C 87.1094 -112.256 83.6914 -108.691 83.6914 -104.59 L 83.6914 -62.6465 L 84.9121 -53.125 L 81.9824 -57.7637 L 75.8789 -64.3066 C 74.6582 -65.625 72.998 -66.3574 71.1914 -66.3574 C 68.0176 -66.3574 65.0879 -63.916 65.0879 -60.4492 C 65.0879 -58.6426 65.7227 -57.3242 66.9434 -56.1523 L 85.7422 -38.0859 C 87.6465 -36.2793 89.5508 -35.5957 91.4551 -35.5957 Z M 38.8184 32.5195 L 144.092 32.5195 C 158.74 32.5195 166.846 24.4141 166.846 9.91211 L 166.846 -26.4648 C 166.846 -35.1074 165.967 -40.1367 162.598 -45.0195 L 143.799 -71.1914 C 135.84 -82.4219 130.42 -86.7676 118.115 -86.7676 L 110.986 -86.7676 L 110.986 -73.4375 L 118.457 -73.4375 C 122.461 -73.4375 125.928 -70.6543 128.32 -67.2363 L 148.34 -38.5742 C 149.805 -36.5234 149.072 -35.4004 146.436 -35.4004 L 108.203 -35.4004 C 104.785 -35.4004 103.418 -33.4473 103.418 -31.2012 L 103.418 -31.0059 C 103.418 -25.1953 99.0234 -18.8477 91.4551 -18.8477 C 83.8867 -18.8477 79.4434 -25.1953 79.4434 -31.0059 L 79.4434 -31.2012 C 79.4434 -33.4473 78.0762 -35.4004 74.6582 -35.4004 L 36.5234 -35.4004 C 33.7891 -35.4004 33.2031 -36.6211 34.6191 -38.5742 L 54.5898 -67.2363 C 57.0312 -70.6543 60.4492 -73.4375 64.4531 -73.4375 L 71.9238 -73.4375 L 71.9238 -86.7676 L 64.8438 -86.7676 C 52.4902 -86.7676 47.168 -82.5684 39.1602 -71.1914 L 20.3125 -45.0195 C 16.8457 -40.0879 16.0645 -35.1074 16.0645 -26.4648 L 16.0645 9.91211 C 16.0645 24.4629 24.2188 32.5195 38.8184 32.5195 Z M 40.3809 15.0391 C 35.5469 15.0391 33.0566 12.7441 33.0566 7.61719 L 33.0566 -20.5078 L 66.2598 -20.5078 C 69.2383 -10.4004 78.8574 -2.83203 91.4551 -2.83203 C 104.004 -2.83203 113.623 -10.4004 116.65 -20.5078 L 149.854 -20.5078 L 149.854 7.61719 C 149.854 12.7441 147.314 15.0391 142.48 15.0391 Z"/>
  </g>
  <g id="Bold-L" transform="matrix(1 0 0 1 2249.01 1556)">
   <path d="M 90.9668 -33.6914 C 92.627 -33.6914 94.1406 -34.2773 95.752 -35.8398 L 115.625 -54.9805 C 116.699 -56.0547 117.285 -57.2266 117.285 -58.7891 C 117.285 -61.8164 114.746 -63.9648 111.914 -63.9648 C 110.352 -63.9648 108.887 -63.3301 107.861 -62.1582 L 100.293 -54.1992 L 96.6309 -49.3164 L 97.5098 -58.7402 L 97.5098 -104.443 C 97.5098 -107.91 94.6289 -110.889 90.9668 -110.889 C 87.3535 -110.889 84.4238 -107.91 84.4238 -104.443 L 84.4238 -58.7402 L 85.3516 -49.3164 L 81.6406 -54.1992 L 74.0723 -62.1582 C 73.0469 -63.3301 71.5332 -63.9648 69.9707 -63.9648 C 67.1387 -63.9648 64.6484 -61.8164 64.6484 -58.7891 C 64.6484 -57.2266 65.2344 -56.0547 66.3086 -54.9805 L 86.1816 -35.8398 C 87.793 -34.2773 89.3555 -33.6914 90.9668 -33.6914 Z M 37.5 31.8848 L 144.385 31.8848 C 158.35 31.8848 165.869 24.3652 165.869 10.5469 L 165.869 -25.8789 C 165.869 -33.3008 165.039 -37.5 161.963 -41.748 L 141.699 -68.7988 C 134.18 -79.0527 129.15 -83.4961 117.48 -83.4961 L 109.766 -83.4961 L 109.766 -72.1191 L 117.969 -72.1191 C 122.266 -72.1191 126.025 -69.043 128.662 -65.4785 L 149.902 -36.4258 C 151.611 -34.1309 150.879 -32.959 148.096 -32.959 L 108.691 -32.959 C 105.469 -32.959 104.102 -30.957 104.102 -28.6621 L 104.102 -28.418 C 104.102 -21.875 99.0723 -15.0391 90.9668 -15.0391 C 82.8125 -15.0391 77.832 -21.875 77.832 -28.418 L 77.832 -28.6621 C 77.832 -30.957 76.416 -32.959 73.1934 -32.959 L 33.8379 -32.959 C 31.0059 -32.959 30.4199 -34.2285 32.0801 -36.4258 L 53.2715 -65.4785 C 55.9082 -69.043 59.7168 -72.1191 63.9648 -72.1191 L 72.2168 -72.1191 L 72.2168 -83.4961 L 64.4531 -83.4961 C 52.7832 -83.4961 47.8516 -79.1504 40.2344 -68.7988 L 19.9707 -41.748 C 16.8457 -37.4512 16.0645 -33.3008 16.0645 -25.8789 L 16.0645 10.5469 C 16.0645 24.4141 23.6328 31.8848 37.5 31.8848 Z M 38.623 17.4316 C 33.1055 17.4316 30.1758 14.6484 30.1758 8.88672 L 30.1758 -20.5078 L 66.3086 -20.5078 C 68.7012 -9.76562 78.3691 -1.80664 90.9668 -1.80664 C 103.516 -1.80664 113.184 -9.76562 115.576 -20.5078 L 151.758 -20.5078 L 151.758 8.88672 C 151.758 14.6484 148.73 17.4316 143.311 17.4316 Z"/>
  </g>
  <g id="Semibold-L" transform="matrix(1 0 0 1 1952.64 1556)">
   <path d="M 90.625 -32.4219 C 92.0898 -32.4219 93.4082 -32.9102 94.8242 -34.2773 L 115.381 -54.1992 C 116.357 -55.1758 116.895 -56.2012 116.895 -57.6172 C 116.895 -60.3516 114.697 -62.3047 112.061 -62.3047 C 110.693 -62.3047 109.375 -61.7676 108.398 -60.6934 L 99.9023 -51.709 L 95.6543 -46.6797 L 96.3379 -56.0547 L 96.3379 -104.297 C 96.3379 -107.324 93.7988 -109.912 90.625 -109.912 C 87.5 -109.912 84.9121 -107.324 84.9121 -104.297 L 84.9121 -56.0547 L 85.5957 -46.6797 L 81.3965 -51.709 L 72.8516 -60.6934 C 71.875 -61.7676 70.5078 -62.3047 69.1406 -62.3047 C 66.5039 -62.3047 64.3555 -60.3516 64.3555 -57.6172 C 64.3555 -56.2012 64.8926 -55.1758 65.8691 -54.1992 L 86.4746 -34.2773 C 87.8906 -32.9102 89.209 -32.4219 90.625 -32.4219 Z M 36.6211 31.3965 L 144.629 31.3965 C 158.057 31.3965 165.186 24.3164 165.186 10.9863 L 165.186 -25.4883 C 165.186 -32.0801 164.404 -35.6445 161.523 -39.502 L 140.283 -67.1875 C 133.008 -76.7578 128.271 -81.2012 117.041 -81.2012 L 108.887 -81.2012 L 108.887 -71.1914 L 117.627 -71.1914 C 122.07 -71.1914 126.123 -67.9688 128.906 -64.2578 L 150.977 -34.9609 C 152.832 -32.4707 152.1 -31.2988 149.268 -31.2988 L 109.033 -31.2988 C 105.957 -31.2988 104.541 -29.248 104.541 -26.9043 L 104.541 -26.6602 C 104.541 -19.5801 99.1211 -12.4512 90.625 -12.4512 C 82.1289 -12.4512 76.6602 -19.5801 76.6602 -26.6602 L 76.6602 -26.9043 C 76.6602 -29.248 75.293 -31.2988 72.168 -31.2988 L 32.0312 -31.2988 C 29.1016 -31.2988 28.4668 -32.6172 30.2734 -34.9609 L 52.3438 -64.2578 C 55.127 -67.9688 59.1797 -71.1914 63.623 -71.1914 L 72.3633 -71.1914 L 72.3633 -81.2012 L 64.209 -81.2012 C 52.9785 -81.2012 48.291 -76.8066 40.9668 -67.1875 L 19.7266 -39.502 C 16.8457 -35.5957 16.0645 -32.0801 16.0645 -25.4883 L 16.0645 10.9863 C 16.0645 24.3652 23.1934 31.3965 36.6211 31.3965 Z M 37.4023 19.043 C 31.3965 19.043 28.1738 16.0156 28.1738 9.76562 L 28.1738 -20.5078 L 66.3574 -20.5078 C 68.3594 -9.32617 78.0762 -1.12305 90.625 -1.12305 C 103.174 -1.12305 112.891 -9.375 114.844 -20.5078 L 153.076 -20.5078 L 153.076 9.76562 C 153.076 16.0156 149.756 19.043 143.848 19.043 Z"/>
  </g>
  <g id="Medium-L" transform="matrix(1 0 0 1 1656.2 1556)">
   <path d="M 90.3809 -31.3965 C 91.6992 -31.3965 92.8223 -31.8359 94.0918 -33.1055 L 115.234 -53.6133 C 116.113 -54.4922 116.65 -55.4688 116.65 -56.7871 C 116.65 -59.2773 114.648 -61.084 112.207 -61.084 C 110.986 -61.084 109.717 -60.5469 108.838 -59.5703 L 99.5605 -49.8047 L 94.9707 -44.6777 L 95.459 -54.0039 L 95.459 -104.199 C 95.459 -106.934 93.1641 -109.229 90.3809 -109.229 C 87.5977 -109.229 85.3027 -106.934 85.3027 -104.199 L 85.3027 -54.0039 L 85.8398 -44.6289 L 81.2012 -49.8047 L 71.9238 -59.5703 C 71.0449 -60.5469 69.7266 -61.084 68.5059 -61.084 C 66.0645 -61.084 64.1113 -59.2773 64.1113 -56.7871 C 64.1113 -55.4688 64.6484 -54.4922 65.5273 -53.6133 L 86.6699 -33.1055 C 87.9395 -31.8359 89.1113 -31.3965 90.3809 -31.3965 Z M 35.9375 31.0547 L 144.775 31.0547 C 157.861 31.0547 164.648 24.2676 164.648 11.3281 L 164.648 -25.1465 C 164.648 -31.1523 163.916 -34.2285 161.182 -37.793 L 139.209 -65.918 C 132.129 -75 127.637 -79.4434 116.699 -79.4434 L 108.252 -79.4434 L 108.252 -70.5078 L 117.383 -70.5078 C 121.973 -70.5078 126.172 -67.1387 129.102 -63.3301 L 151.758 -33.8379 C 153.809 -31.2012 153.027 -30.0293 150.146 -30.0293 L 109.326 -30.0293 C 106.299 -30.0293 104.932 -27.9297 104.932 -25.5859 L 104.932 -25.3418 C 104.932 -17.8711 99.1699 -10.4492 90.3809 -10.4492 C 81.5918 -10.4492 75.8301 -17.8711 75.8301 -25.3418 L 75.8301 -25.5859 C 75.8301 -27.9297 74.4141 -30.0293 71.4355 -30.0293 L 30.6641 -30.0293 C 27.6367 -30.0293 27.0508 -31.3477 28.9551 -33.8379 L 51.6113 -63.3301 C 54.5898 -67.1387 58.7891 -70.5078 63.3789 -70.5078 L 72.5098 -70.5078 L 72.5098 -79.4434 L 64.0137 -79.4434 C 53.125 -79.4434 48.6328 -75.0488 41.5527 -65.918 L 19.5312 -37.793 C 16.7969 -34.2285 16.0645 -31.1523 16.0645 -25.1465 L 16.0645 11.3281 C 16.0645 24.3164 22.9004 31.0547 35.9375 31.0547 Z M 36.4746 20.3125 C 30.127 20.3125 26.6602 16.9922 26.6602 10.4492 L 26.6602 -20.5078 L 66.4062 -20.5078 C 68.0664 -8.98438 77.832 -0.585938 90.3809 -0.585938 C 102.93 -0.585938 112.646 -9.0332 114.307 -20.5078 L 154.053 -20.5078 L 154.053 10.4492 C 154.053 16.9922 150.537 20.3125 144.287 20.3125 Z"/>
  </g>
  <g id="Regular-L" transform="matrix(1 0 0 1 1359.81 1556)">
   <path d="M 90.0391 -30.127 C 91.1621 -30.127 92.0898 -30.4688 93.1641 -31.543 L 114.99 -52.832 C 115.82 -53.6133 116.26 -54.4922 116.26 -55.6641 C 116.26 -57.8125 114.551 -59.4238 112.354 -59.4238 C 111.279 -59.4238 110.156 -58.9844 109.424 -58.1543 L 99.1211 -47.3633 L 93.9941 -42.041 L 94.3359 -51.3184 L 94.3359 -104.102 C 94.3359 -106.348 92.3828 -108.252 90.0391 -108.252 C 87.7441 -108.252 85.791 -106.348 85.791 -104.102 L 85.791 -51.3184 L 86.1328 -42.041 L 80.957 -47.3633 L 70.7031 -58.1543 C 69.9219 -58.9844 68.75 -59.4238 67.6758 -59.4238 C 65.4785 -59.4238 63.8184 -57.8125 63.8184 -55.6641 C 63.8184 -54.4922 64.3066 -53.6133 65.0879 -52.832 L 86.9629 -31.543 C 88.0371 -30.4688 88.9648 -30.127 90.0391 -30.127 Z M 35.0586 30.6152 L 144.971 30.6152 C 157.617 30.6152 164.014 24.2188 164.014 11.7676 L 164.014 -24.7559 C 164.014 -29.9316 163.281 -32.4219 160.742 -35.5957 L 137.793 -64.3066 C 131.006 -72.7051 126.758 -77.1973 116.309 -77.1973 L 107.422 -77.1973 L 107.422 -69.5801 L 117.041 -69.5801 C 121.777 -69.5801 126.27 -66.0645 129.346 -62.1582 L 152.832 -32.373 C 155.029 -29.5898 154.297 -28.418 151.27 -28.418 L 109.668 -28.418 C 106.738 -28.418 105.371 -26.2695 105.371 -23.877 L 105.371 -23.584 C 105.371 -15.5762 99.1699 -7.86133 90.0391 -7.86133 C 80.8594 -7.86133 74.707 -15.5762 74.707 -23.584 L 74.707 -23.877 C 74.707 -26.2695 73.291 -28.418 70.4102 -28.418 L 28.8574 -28.418 C 25.7324 -28.418 25.1465 -29.7363 27.1973 -32.373 L 50.7324 -62.1582 C 53.8086 -66.0645 58.252 -69.5801 63.0371 -69.5801 L 72.7051 -69.5801 L 72.7051 -77.1973 L 63.7695 -77.1973 C 53.2715 -77.1973 49.0723 -72.7051 42.2852 -64.3066 L 19.2871 -35.5957 C 16.7969 -32.4219 16.0645 -29.9316 16.0645 -24.7559 L 16.0645 11.7676 C 16.0645 24.2676 22.4609 30.6152 35.0586 30.6152 Z M 35.2539 21.9238 C 28.418 21.9238 24.707 18.3105 24.707 11.3281 L 24.707 -20.5078 L 66.4551 -20.5078 C 67.6758 -8.54492 77.4902 0.146484 90.0391 0.146484 C 102.588 0.146484 112.354 -8.59375 113.574 -20.5078 L 155.322 -20.5078 L 155.322 11.3281 C 155.322 18.3105 151.514 21.9238 144.824 21.9238 Z"/>
  </g>
  <g id="Light-L" transform="matrix(1 0 0 1 1063.56 1556)">
   <path d="M 89.6484 -30.0293 C 90.4785 -30.0293 91.2109 -30.3223 91.9922 -31.1035 L 114.551 -53.3691 C 115.186 -54.0039 115.527 -54.6387 115.527 -55.5176 C 115.527 -57.1777 114.209 -58.4473 112.549 -58.4473 C 111.768 -58.4473 110.84 -58.1055 110.254 -57.4219 L 98.9746 -45.8496 L 92.6758 -39.4043 L 92.9199 -48.3887 L 92.9199 -105.176 C 92.9199 -106.934 91.4062 -108.398 89.6484 -108.398 C 87.8418 -108.398 86.377 -106.934 86.377 -105.176 L 86.377 -48.3887 L 86.5723 -39.3555 L 80.2246 -45.8496 L 68.9453 -57.4219 C 68.3594 -58.1055 67.4316 -58.4473 66.6504 -58.4473 C 64.9414 -58.4473 63.6719 -57.1777 63.6719 -55.5176 C 63.6719 -54.6387 64.0137 -54.0039 64.6484 -53.3691 L 87.2559 -31.1035 C 88.0371 -30.3223 88.8184 -30.0293 89.6484 -30.0293 Z M 34.0332 29.7852 L 145.117 29.7852 C 157.031 29.7852 163.086 23.6328 163.086 11.9141 L 163.086 -23.584 C 163.086 -27.9785 162.451 -30.0781 160.303 -32.7637 L 135.742 -63.9648 C 129.736 -71.4844 125.928 -74.8535 116.406 -74.8535 L 108.008 -74.8535 L 108.008 -68.9941 L 117.139 -68.9941 C 122.168 -68.9941 126.172 -66.1621 129.248 -62.2559 L 154.346 -30.2734 C 156.006 -28.0762 155.469 -27.002 153.076 -27.002 L 109.473 -27.002 C 107.031 -27.002 105.859 -25.293 105.859 -23.1934 L 105.859 -22.8516 C 105.859 -13.916 99.0723 -6.20117 89.5996 -6.20117 C 80.0781 -6.20117 73.291 -13.916 73.291 -22.8516 L 73.291 -23.1934 C 73.291 -25.293 72.1191 -27.002 69.7266 -27.002 L 26.123 -27.002 C 23.6816 -27.002 23.2422 -28.1738 24.8535 -30.2734 L 49.9512 -62.2559 C 53.0273 -66.1621 57.0312 -68.9941 62.0605 -68.9941 L 71.2402 -68.9941 L 71.2402 -74.8535 L 62.793 -74.8535 C 53.2227 -74.8535 49.4141 -71.4844 43.4082 -63.9648 L 18.8477 -32.7637 C 16.6992 -30.0781 16.0645 -27.9785 16.0645 -23.584 L 16.0645 11.9141 C 16.0645 23.7305 22.168 29.7852 34.0332 29.7852 Z M 34.1797 23.1445 C 26.709 23.1445 22.7051 19.2383 22.7051 11.5723 L 22.7051 -20.8984 L 66.8945 -20.8984 C 67.6758 -8.69141 77.3926 -0.0488281 89.5996 -0.0488281 C 101.807 -0.0488281 111.475 -8.78906 112.256 -20.8984 L 156.494 -20.8984 L 156.494 11.5723 C 156.494 19.2383 152.295 23.1445 144.971 23.1445 Z"/>
  </g>
  <g id="Thin-L" transform="matrix(1 0 0 1 767.433 1556)">
   <path d="M 89.0625 -29.9316 C 89.5508 -29.9316 90.0391 -30.0781 90.4785 -30.5176 L 114.014 -54.0527 C 114.404 -54.4434 114.6 -54.834 114.6 -55.3223 C 114.6 -56.3477 113.721 -57.1777 112.842 -57.1777 C 112.354 -57.1777 111.768 -56.8848 111.377 -56.4941 L 98.7793 -43.8477 L 90.918 -35.8887 L 91.0156 -44.5801 L 91.0156 -106.641 C 91.0156 -107.666 90.1367 -108.545 89.0625 -108.545 C 87.9883 -108.545 87.1094 -107.666 87.1094 -106.641 L 87.1094 -44.5801 L 87.207 -35.791 L 79.2969 -43.8477 L 66.6992 -56.4941 C 66.3086 -56.8848 65.7227 -57.1777 65.2344 -57.1777 C 64.2578 -57.1777 63.4766 -56.3477 63.4766 -55.3223 C 63.4766 -54.834 63.6719 -54.4434 64.0625 -54.0527 L 87.6953 -30.5176 C 88.0859 -30.0781 88.5742 -29.9316 89.0625 -29.9316 Z M 32.666 28.7109 L 145.312 28.7109 C 156.201 28.7109 161.914 22.8516 161.914 12.1094 L 161.914 -22.0215 C 161.914 -25.3906 161.426 -26.9531 159.766 -29.1016 L 133.057 -63.5254 C 128.125 -69.873 124.854 -71.7773 116.553 -71.7773 L 108.838 -71.7773 L 108.838 -68.1641 L 117.285 -68.1641 C 122.656 -68.1641 126.025 -66.2598 129.102 -62.4023 L 156.299 -27.4902 C 157.324 -26.0742 157.031 -25.1465 155.518 -25.1465 L 109.18 -25.1465 C 107.422 -25.1465 106.543 -24.0234 106.543 -22.3145 L 106.543 -21.875 C 106.543 -11.7188 98.9258 -4.00391 89.0137 -4.00391 C 79.0527 -4.00391 71.4844 -11.7188 71.4844 -21.875 L 71.4844 -22.3145 C 71.4844 -24.0234 70.6055 -25.1465 68.7988 -25.1465 L 22.5098 -25.1465 C 20.9473 -25.1465 20.6543 -26.0742 21.7285 -27.4902 L 48.9258 -62.4023 C 51.9531 -66.2598 55.3711 -68.1641 60.7422 -68.1641 L 69.3359 -68.1641 L 69.3359 -71.7773 L 61.4258 -71.7773 C 53.1738 -71.7773 49.9023 -69.873 44.9219 -63.5254 L 18.2129 -29.1016 C 16.6016 -26.9531 16.0645 -25.3906 16.0645 -22.0215 L 16.0645 12.1094 C 16.0645 22.998 21.7773 28.7109 32.666 28.7109 Z M 32.8125 24.7559 C 24.4141 24.7559 19.9707 20.4102 19.9707 11.9141 L 19.9707 -21.4355 L 67.4805 -21.4355 C 67.6758 -8.83789 77.2461 -0.292969 89.0137 -0.292969 C 100.781 -0.292969 110.303 -8.98438 110.547 -21.4355 L 158.008 -21.4355 L 158.008 11.9141 C 158.008 20.4102 153.32 24.7559 145.166 24.7559 Z"/>
  </g>
  <g id="Ultralight-L" transform="matrix(1 0 0 1 471.015 1556)">
   <path d="M 88.7695 -29.834 C 89.1113 -29.834 89.4531 -29.9805 89.6484 -30.2246 L 113.721 -54.4434 C 113.965 -54.6875 114.111 -54.9316 114.111 -55.2734 C 114.111 -55.9082 113.477 -56.4941 112.939 -56.4941 C 112.646 -56.4941 112.207 -56.2988 111.963 -56.0059 L 98.6816 -42.8223 L 90.0391 -34.082 L 90.0879 -42.627 L 90.0879 -107.373 C 90.0879 -108.057 89.502 -108.643 88.7695 -108.643 C 88.0859 -108.643 87.5 -108.057 87.5 -107.373 L 87.5 -42.627 L 87.5488 -33.9844 L 78.8086 -42.8223 L 65.5273 -56.0059 C 65.2344 -56.2988 64.8438 -56.4941 64.5508 -56.4941 C 63.916 -56.4941 63.3789 -55.9082 63.3789 -55.2734 C 63.3789 -54.9316 63.5254 -54.6875 63.7695 -54.4434 L 87.8906 -30.2246 C 88.1348 -29.9805 88.4766 -29.834 88.7695 -29.834 Z M 31.9824 28.1738 L 145.41 28.1738 C 155.811 28.1738 161.328 22.4609 161.328 12.207 L 161.328 -21.1914 C 161.328 -24.1211 160.889 -25.3418 159.473 -27.1973 L 131.689 -63.3301 C 127.295 -69.043 124.268 -70.2148 116.602 -70.2148 L 109.229 -70.2148 L 109.229 -67.7246 L 117.334 -67.7246 C 122.9 -67.7246 125.977 -66.3574 129.004 -62.5 L 157.275 -26.0742 C 158.008 -25.0488 157.812 -24.2188 156.738 -24.2188 L 109.033 -24.2188 C 107.568 -24.2188 106.885 -23.3887 106.885 -21.875 L 106.885 -21.3379 C 106.885 -10.5957 98.877 -2.88086 88.7207 -2.88086 C 78.5156 -2.88086 70.5566 -10.5957 70.5566 -21.3379 L 70.5566 -21.875 C 70.5566 -23.3887 69.8242 -24.2188 68.3594 -24.2188 L 20.6543 -24.2188 C 19.5801 -24.2188 19.3848 -25.0488 20.1172 -26.0742 L 48.3887 -62.5 C 51.416 -66.3574 54.4922 -67.7246 60.0586 -67.7246 L 68.3594 -67.7246 L 68.3594 -70.2148 L 60.791 -70.2148 C 53.125 -70.2148 50.0977 -69.043 45.7031 -63.3301 L 17.9199 -27.1973 C 16.5039 -25.3418 16.0645 -24.1211 16.0645 -21.1914 L 16.0645 12.207 C 16.0645 22.6074 21.582 28.1738 31.9824 28.1738 Z M 32.1289 25.5859 C 23.1934 25.5859 18.6035 20.9961 18.6035 12.1094 L 18.6035 -21.7285 L 67.7734 -21.7285 C 67.6758 -8.93555 77.1484 -0.439453 88.7207 -0.439453 C 100.244 -0.439453 109.717 -9.13086 109.668 -21.7285 L 158.789 -21.7285 L 158.789 12.1094 C 158.789 20.9961 153.857 25.5859 145.264 25.5859 Z"/>
  </g>
  <g id="Black-M" transform="matrix(1 0 0 1 2861.84 1126)">
   <path d="M 71.582 -39.0625 C 73.4375 -39.0625 75.3906 -39.7461 77.2949 -41.5039 L 90.2344 -53.9062 C 91.3574 -54.9805 91.9434 -56.1523 91.9434 -57.8613 C 91.9434 -61.1328 89.0625 -63.3789 86.2305 -63.3789 C 84.4727 -63.3789 82.959 -62.5977 81.8359 -61.4258 L 79.2969 -58.7402 L 77.832 -54.9805 L 79.2969 -62.4023 L 79.2969 -89.9414 C 79.2969 -93.9941 75.9766 -97.6074 71.582 -97.6074 C 67.1387 -97.6074 63.8184 -93.9941 63.8184 -89.9414 L 63.8184 -62.4023 L 65.2832 -54.9805 L 63.8184 -58.7402 L 61.2793 -61.4258 C 60.1562 -62.5977 58.6426 -63.3789 56.8848 -63.3789 C 54.1016 -63.3789 51.1719 -61.1328 51.1719 -57.8613 C 51.1719 -56.1523 51.7578 -54.9805 52.8809 -53.9062 L 65.8203 -41.5039 C 67.7246 -39.7461 69.6777 -39.0625 71.582 -39.0625 Z M 31.9824 18.1152 L 111.133 18.1152 C 123.389 18.1152 130.664 10.8398 130.664 -1.41602 L 130.664 -28.9062 C 130.664 -37.4512 129.98 -42.8223 127.002 -47.5586 L 114.258 -67.4316 C 107.812 -77.5391 103.027 -80.2246 92.7734 -80.2246 L 88.7207 -80.2246 L 88.7207 -67.041 L 92.8223 -67.041 C 95.5566 -67.041 97.3145 -65.7227 98.7305 -63.4277 L 112.744 -40.7227 C 113.232 -39.9902 112.744 -39.1602 111.279 -39.1602 L 82.8125 -39.1602 C 80.0781 -39.1602 79.1504 -38.0371 79.1504 -36.5234 L 79.1504 -36.4258 C 79.1504 -32.9102 76.5625 -28.8086 71.582 -28.8086 C 66.5527 -28.8086 63.9648 -32.9102 63.9648 -36.4258 L 63.9648 -36.5234 C 63.9648 -38.0371 63.0371 -39.1602 60.3027 -39.1602 L 31.8359 -39.1602 C 30.4199 -39.1602 29.9805 -39.9902 30.4199 -40.7227 L 44.4824 -63.4277 C 45.8496 -65.7227 47.6074 -67.041 50.3418 -67.041 L 54.4434 -67.041 L 54.4434 -80.2246 L 50.3906 -80.2246 C 40.1367 -80.2246 35.5469 -77.7344 28.9062 -67.4316 L 16.1621 -47.5586 C 13.0859 -42.7734 12.4512 -37.4512 12.4512 -28.9062 L 12.4512 -1.41602 C 12.4512 10.8398 19.7266 18.1152 31.9824 18.1152 Z M 34.1309 -0.146484 C 31.2988 -0.146484 29.9805 -1.26953 29.9805 -4.3457 L 29.9805 -24.0723 L 51.416 -24.0723 C 54.6875 -17.2363 61.9629 -12.207 71.582 -12.207 C 81.1523 -12.207 88.4277 -17.2363 91.6992 -24.0723 L 113.135 -24.0723 L 113.135 -4.3457 C 113.135 -1.26953 111.816 -0.146484 108.984 -0.146484 Z"/>
  </g>
  <g id="Heavy-M" transform="matrix(1 0 0 1 2565.5 1126)">
   <path d="M 71.1914 -37.2559 C 72.9004 -37.2559 74.5605 -37.8418 76.2695 -39.4043 L 90.0391 -52.6367 C 91.0645 -53.6133 91.6016 -54.7363 91.6016 -56.25 C 91.6016 -59.2285 89.0137 -61.2793 86.377 -61.2793 C 84.8145 -61.2793 83.4473 -60.6445 82.4219 -59.5215 L 78.7598 -55.6152 L 76.8555 -51.9043 L 78.0273 -59.3262 L 78.0273 -89.4531 C 78.0273 -93.0664 75.0488 -96.2402 71.1914 -96.2402 C 67.334 -96.2402 64.3555 -93.0664 64.3555 -89.4531 L 64.3555 -59.3262 L 65.5762 -51.9043 L 63.6719 -55.6152 L 59.9609 -59.5215 C 58.9355 -60.6445 57.5684 -61.2793 56.0059 -61.2793 C 53.3691 -61.2793 50.7812 -59.2285 50.7812 -56.25 C 50.7812 -54.7363 51.3184 -53.6133 52.3438 -52.6367 L 66.1621 -39.4043 C 67.8223 -37.8418 69.5312 -37.2559 71.1914 -37.2559 Z M 31.0059 17.6758 L 111.426 17.6758 C 123.193 17.6758 129.932 10.9375 129.932 -0.830078 L 129.932 -28.6621 C 129.932 -36.2305 129.297 -40.8691 126.465 -45.0684 L 112.793 -65.2344 C 106.494 -74.5605 102.002 -77.5879 92.1387 -77.5879 L 87.3047 -77.5879 L 87.3047 -65.8691 L 92.334 -65.8691 C 95.2637 -65.8691 97.4609 -64.1602 99.1211 -61.6699 L 113.916 -39.209 C 114.697 -38.0371 114.16 -37.207 112.451 -37.207 L 83.3496 -37.207 C 80.6641 -37.207 79.6875 -35.8398 79.6875 -34.2285 L 79.6875 -34.082 C 79.6875 -30.0781 76.6602 -25.5371 71.1914 -25.5371 C 65.7227 -25.5371 62.7441 -30.0781 62.7441 -34.082 L 62.7441 -34.2285 C 62.7441 -35.8398 61.7188 -37.207 59.0332 -37.207 L 29.9805 -37.207 C 28.2227 -37.207 27.7344 -38.0859 28.5645 -39.209 L 43.3594 -61.6699 C 44.9707 -64.1602 47.2168 -65.8691 50.1465 -65.8691 L 55.0781 -65.8691 L 55.0781 -77.5879 L 50.293 -77.5879 C 40.4297 -77.5879 36.084 -74.707 29.6875 -65.2344 L 15.918 -45.0684 C 13.0859 -40.8203 12.4512 -36.2305 12.4512 -28.6621 L 12.4512 -0.830078 C 12.4512 10.9375 19.2383 17.6758 31.0059 17.6758 Z M 32.666 1.85547 C 29.3457 1.85547 27.6855 0.390625 27.6855 -3.125 L 27.6855 -23.9258 L 51.3672 -23.9258 C 54.1504 -16.6016 61.5234 -11.1328 71.1914 -11.1328 C 80.8594 -11.1328 88.2324 -16.6016 91.0156 -23.9258 L 114.697 -23.9258 L 114.697 -3.125 C 114.697 0.390625 113.037 1.85547 109.717 1.85547 Z"/>
  </g>
  <g id="Bold-M" transform="matrix(1 0 0 1 2269.18 1126)">
   <path d="M 70.8008 -35.2051 C 72.2656 -35.2051 73.6328 -35.6934 75.0977 -37.0605 L 89.7949 -51.2207 C 90.7227 -52.1484 91.2109 -53.125 91.2109 -54.4922 C 91.2109 -57.1289 89.0137 -58.9844 86.5723 -58.9844 C 85.2539 -58.9844 83.9844 -58.3984 83.0566 -57.4219 L 78.125 -52.0996 L 75.7324 -48.4863 L 76.6113 -55.8594 L 76.6113 -88.9648 C 76.6113 -92.041 74.0723 -94.6777 70.8008 -94.6777 C 67.5293 -94.6777 64.9902 -92.041 64.9902 -88.9648 L 64.9902 -55.8594 L 65.8691 -48.4863 L 63.4766 -52.0996 L 58.5449 -57.4219 C 57.6172 -58.3984 56.3477 -58.9844 54.9805 -58.9844 C 52.5391 -58.9844 50.3906 -57.1289 50.3906 -54.4922 C 50.3906 -53.125 50.8789 -52.1484 51.8066 -51.2207 L 66.5039 -37.0605 C 67.9688 -35.6934 69.3848 -35.2051 70.8008 -35.2051 Z M 29.8828 17.1875 L 111.719 17.1875 C 122.949 17.1875 129.15 10.9863 129.15 -0.146484 L 129.15 -28.3691 C 129.15 -34.8633 128.467 -38.623 125.928 -42.334 L 111.133 -62.6953 C 105.029 -71.2402 100.879 -74.6582 91.4062 -74.6582 L 85.791 -74.6582 L 85.791 -64.6484 L 91.748 -64.6484 C 94.873 -64.6484 97.6074 -62.4023 99.5117 -59.7168 L 115.186 -37.5 C 116.406 -35.8398 115.82 -34.9609 113.721 -34.9609 L 83.9355 -34.9609 C 81.3477 -34.9609 80.2734 -33.3984 80.2734 -31.6895 L 80.2734 -31.4941 C 80.2734 -26.9043 76.7578 -21.9238 70.8008 -21.9238 C 64.8438 -21.9238 61.3281 -26.9043 61.3281 -31.4941 L 61.3281 -31.6895 C 61.3281 -33.3984 60.2539 -34.9609 57.6172 -34.9609 L 27.8809 -34.9609 C 25.7324 -34.9609 25.293 -35.9375 26.416 -37.5 L 42.0898 -59.7168 C 43.9941 -62.4023 46.7285 -64.6484 49.9023 -64.6484 L 55.8105 -64.6484 L 55.8105 -74.6582 L 50.1953 -74.6582 C 40.7227 -74.6582 36.6699 -71.3379 30.5176 -62.6953 L 15.6738 -42.334 C 13.0859 -38.5742 12.4512 -34.8633 12.4512 -28.3691 L 12.4512 -0.146484 C 12.4512 11.0352 18.6523 17.1875 29.8828 17.1875 Z M 31.0059 4.10156 C 27.1484 4.10156 25.1465 2.24609 25.1465 -1.80664 L 25.1465 -23.8281 L 51.3672 -23.8281 C 53.5645 -15.8691 61.0352 -9.96094 70.8008 -9.96094 C 80.5664 -9.96094 87.9883 -15.8691 90.2344 -23.8281 L 116.455 -23.8281 L 116.455 -1.80664 C 116.455 2.24609 114.404 4.10156 110.547 4.10156 Z"/>
  </g>
  <g id="Semibold-M" transform="matrix(1 0 0 1 1972.76 1126)">
   <path d="M 70.5078 -33.7891 C 71.8262 -33.7891 72.998 -34.2285 74.2676 -35.4492 L 89.6484 -50.2441 C 90.5273 -51.0742 90.9668 -52.002 90.9668 -53.2715 C 90.9668 -55.6641 89.0137 -57.373 86.7188 -57.373 C 85.498 -57.373 84.375 -56.8359 83.5449 -55.957 L 77.6855 -49.707 L 74.9512 -46.1426 L 75.6348 -53.4668 L 75.6348 -88.5742 C 75.6348 -91.3086 73.3398 -93.6035 70.5078 -93.6035 C 67.6758 -93.6035 65.4297 -91.3086 65.4297 -88.5742 L 65.4297 -53.4668 L 66.0645 -46.1426 L 63.3789 -49.707 L 57.5195 -55.957 C 56.6895 -56.8359 55.4688 -57.373 54.2969 -57.373 C 52.002 -57.373 50.0488 -55.6641 50.0488 -53.2715 C 50.0488 -52.002 50.5371 -51.0742 51.416 -50.2441 L 66.7969 -35.4492 C 68.0664 -34.2285 69.2383 -33.7891 70.5078 -33.7891 Z M 29.1016 16.8457 L 111.914 16.8457 C 122.803 16.8457 128.564 11.084 128.564 0.292969 L 128.564 -28.125 C 128.564 -33.8867 127.93 -37.0605 125.488 -40.4297 L 109.961 -60.9863 C 104.004 -68.9453 100.098 -72.6074 90.918 -72.6074 L 84.7168 -72.6074 L 84.7168 -63.7695 L 91.3086 -63.7695 C 94.6289 -63.7695 97.7051 -61.1816 99.8047 -58.3984 L 116.064 -36.2793 C 117.529 -34.3262 116.943 -33.4473 114.648 -33.4473 L 84.375 -33.4473 C 81.7871 -33.4473 80.6641 -31.7383 80.6641 -29.8828 L 80.6641 -29.7363 C 80.6641 -24.7559 76.8066 -19.3848 70.5078 -19.3848 C 64.209 -19.3848 60.3516 -24.7559 60.3516 -29.7363 L 60.3516 -29.8828 C 60.3516 -31.7383 59.2285 -33.4473 56.6406 -33.4473 L 26.416 -33.4473 C 24.0723 -33.4473 23.584 -34.4238 25 -36.2793 L 41.2598 -58.3984 C 43.3594 -61.1816 46.4355 -63.7695 49.707 -63.7695 L 56.2988 -63.7695 L 56.2988 -72.6074 L 50.0977 -72.6074 C 40.9668 -72.6074 37.1094 -69.043 31.1035 -60.9863 L 15.5273 -40.4297 C 13.0859 -37.0605 12.4512 -33.8867 12.4512 -28.125 L 12.4512 0.292969 C 12.4512 11.084 18.2617 16.8457 29.1016 16.8457 Z M 29.8828 5.66406 C 25.6348 5.66406 23.3887 3.51562 23.3887 -0.878906 L 23.3887 -23.7305 L 51.3184 -23.7305 C 53.1738 -15.3809 60.6934 -9.13086 70.5078 -9.13086 C 80.3223 -9.13086 87.8418 -15.3809 89.6973 -23.7305 L 117.627 -23.7305 L 117.627 -0.878906 C 117.627 3.51562 115.332 5.66406 111.133 5.66406 Z"/>
  </g>
  <g id="Medium-M" transform="matrix(1 0 0 1 1676.24 1126)">
   <path d="M 70.3125 -32.7148 C 71.4844 -32.7148 72.5098 -33.1055 73.6816 -34.2285 L 89.502 -49.5117 C 90.332 -50.293 90.7715 -51.1719 90.7715 -52.3438 C 90.7715 -54.541 89.0137 -56.1523 86.8164 -56.1523 C 85.7422 -56.1523 84.6191 -55.7129 83.8867 -54.834 L 77.3438 -47.9004 L 74.3652 -44.3848 L 74.9023 -51.709 L 74.9023 -88.3301 C 74.9023 -90.7227 72.8516 -92.8223 70.3125 -92.8223 C 67.7734 -92.8223 65.7227 -90.7227 65.7227 -88.3301 L 65.7227 -51.709 L 66.2598 -44.3359 L 63.2812 -47.9004 L 56.7383 -54.834 C 56.0059 -55.7129 54.834 -56.1523 53.7598 -56.1523 C 51.5625 -56.1523 49.8535 -54.541 49.8535 -52.3438 C 49.8535 -51.1719 50.293 -50.293 51.0742 -49.5117 L 66.9434 -34.2285 C 68.1152 -33.1055 69.1406 -32.7148 70.3125 -32.7148 Z M 28.5156 16.6016 L 112.061 16.6016 C 122.656 16.6016 128.174 11.1328 128.174 0.683594 L 128.174 -27.9785 C 128.174 -33.1543 127.539 -35.9375 125.195 -38.9648 L 109.082 -59.668 C 103.223 -67.2363 99.5117 -71.0938 90.5762 -71.0938 L 83.9355 -71.0938 L 83.9355 -63.0859 L 91.0156 -63.0859 C 94.4336 -63.0859 97.8027 -60.2539 100.049 -57.373 L 116.748 -35.4004 C 118.408 -33.2031 117.773 -32.2754 115.283 -32.2754 L 84.668 -32.2754 C 82.1289 -32.2754 80.957 -30.4688 80.957 -28.5645 L 80.957 -28.3691 C 80.957 -23.0957 76.8555 -17.4805 70.3125 -17.4805 C 63.7207 -17.4805 59.6191 -23.0957 59.6191 -28.3691 L 59.6191 -28.5645 C 59.6191 -30.4688 58.4961 -32.2754 55.9082 -32.2754 L 25.3418 -32.2754 C 22.8027 -32.2754 22.2656 -33.3496 23.877 -35.4004 L 40.5762 -57.373 C 42.8223 -60.2539 46.1914 -63.0859 49.6094 -63.0859 L 56.6895 -63.0859 L 56.6895 -71.0938 L 50.0488 -71.0938 C 41.1133 -71.0938 37.4023 -67.2852 31.543 -59.668 L 15.3809 -38.9648 C 13.0859 -35.8887 12.4512 -33.1543 12.4512 -27.9785 L 12.4512 0.683594 C 12.4512 11.1328 17.9688 16.6016 28.5156 16.6016 Z M 29.0039 6.83594 C 24.5117 6.83594 22.0703 4.49219 22.0703 -0.195312 L 22.0703 -23.6816 L 51.3184 -23.6816 C 52.8809 -14.9902 60.4492 -8.54492 70.3125 -8.54492 C 80.1758 -8.54492 87.7441 -14.9902 89.3066 -23.6816 L 118.555 -23.6816 L 118.555 -0.195312 C 118.555 4.49219 116.064 6.83594 111.572 6.83594 Z"/>
  </g>
  <g id="Regular-M" transform="matrix(1 0 0 1 1379.82 1126)">
   <path d="M 70.0195 -31.3477 C 71.0449 -31.3477 71.875 -31.6406 72.8516 -32.6172 L 89.3555 -48.5352 C 90.0879 -49.2676 90.5273 -50.0977 90.5273 -51.123 C 90.5273 -53.125 88.9648 -54.541 86.9629 -54.541 C 85.9863 -54.541 85.0098 -54.1504 84.3262 -53.3691 L 76.9043 -45.5078 L 73.6328 -42.041 L 73.9258 -49.3652 L 73.9258 -87.9883 C 73.9258 -90.0391 72.1191 -91.748 70.0195 -91.748 C 67.9199 -91.748 66.1621 -90.0391 66.1621 -87.9883 L 66.1621 -49.3652 L 66.4551 -42.041 L 63.1348 -45.5078 L 55.7617 -53.3691 C 55.0781 -54.1504 54.0039 -54.541 53.0762 -54.541 C 51.0254 -54.541 49.5605 -53.125 49.5605 -51.123 C 49.5605 -50.0977 49.9512 -49.2676 50.6836 -48.5352 L 67.2363 -32.6172 C 68.2129 -31.6406 69.043 -31.3477 70.0195 -31.3477 Z M 27.7832 16.2598 L 112.256 16.2598 C 122.51 16.2598 127.588 11.1816 127.588 1.12305 L 127.588 -27.7832 C 127.588 -32.2266 127.002 -34.4238 124.805 -37.0605 L 107.959 -57.959 C 102.246 -64.9902 98.7305 -69.0918 90.0879 -69.0918 L 82.9102 -69.0918 L 82.9102 -62.207 L 90.625 -62.207 C 94.1895 -62.207 97.9004 -59.082 100.293 -56.0547 L 117.627 -34.2285 C 119.58 -31.7383 118.896 -30.7617 116.211 -30.7617 L 85.1074 -30.7617 C 82.5684 -30.7617 81.3965 -28.8086 81.3965 -26.8066 L 81.3965 -26.6113 C 81.3965 -20.9473 76.9531 -14.9902 70.0195 -14.9902 C 63.1348 -14.9902 58.6914 -20.9473 58.6914 -26.6113 L 58.6914 -26.8066 C 58.6914 -28.8086 57.4707 -30.7617 54.9316 -30.7617 L 23.9258 -30.7617 C 21.0938 -30.7617 20.5566 -31.8848 22.4609 -34.2285 L 39.7461 -56.0547 C 42.1387 -59.082 45.8496 -62.207 49.4141 -62.207 L 57.1777 -62.207 L 57.1777 -69.0918 L 50 -69.0918 C 41.3086 -69.0918 37.8418 -64.9902 32.1289 -57.959 L 15.2344 -37.0605 C 13.0859 -34.4238 12.4512 -32.2266 12.4512 -27.7832 L 12.4512 1.12305 C 12.4512 11.1816 17.5781 16.2598 27.7832 16.2598 Z M 27.8809 8.39844 C 22.998 8.39844 20.3125 5.76172 20.3125 0.683594 L 20.3125 -23.584 L 51.2695 -23.584 C 52.4414 -14.4531 60.1074 -7.71484 70.0195 -7.71484 C 79.9316 -7.71484 87.5977 -14.502 88.7695 -23.584 L 119.727 -23.584 L 119.727 0.683594 C 119.727 5.76172 116.992 8.39844 112.158 8.39844 Z"/>
  </g>
  <g id="Light-M" transform="matrix(1 0 0 1 1083.5 1126)">
   <path d="M 69.6777 -31.25 C 70.4102 -31.25 71.0938 -31.4941 71.8262 -32.2266 L 88.9648 -49.0234 C 89.5508 -49.6094 89.8926 -50.1953 89.8926 -51.0254 C 89.8926 -52.5391 88.6719 -53.6621 87.1582 -53.6621 C 86.4258 -53.6621 85.5957 -53.3691 85.0586 -52.7344 L 76.7578 -44.1406 L 72.4121 -39.6484 L 72.6562 -46.7285 L 72.6562 -88.9648 C 72.6562 -90.5273 71.2891 -91.8945 69.6777 -91.8945 C 68.0176 -91.8945 66.6504 -90.5273 66.6504 -88.9648 L 66.6504 -46.7285 L 66.8945 -39.5996 L 62.5 -44.1406 L 54.1992 -52.7344 C 53.6621 -53.3691 52.832 -53.6621 52.0996 -53.6621 C 50.5371 -53.6621 49.4141 -52.5391 49.4141 -51.0254 C 49.4141 -50.1953 49.7559 -49.6094 50.293 -49.0234 L 67.4805 -32.2266 C 68.2129 -31.4941 68.8965 -31.25 69.6777 -31.25 Z M 26.8555 15.5273 L 112.402 15.5273 C 121.973 15.5273 126.807 10.6445 126.807 1.26953 L 126.807 -26.709 C 126.807 -30.4688 126.27 -32.2754 124.463 -34.5703 L 106.104 -57.666 C 101.123 -63.8672 97.998 -66.9922 90.1855 -66.9922 L 83.4473 -66.9922 L 83.4473 -61.6699 L 90.7227 -61.6699 C 94.5312 -61.6699 97.8027 -59.1797 100.195 -56.1523 L 118.945 -32.3242 C 120.459 -30.3711 119.971 -29.4922 117.822 -29.4922 L 84.9121 -29.4922 C 82.8125 -29.4922 81.8359 -27.9785 81.8359 -26.2207 L 81.8359 -25.9766 C 81.8359 -19.4824 76.8555 -13.4766 69.6289 -13.4766 C 62.4023 -13.4766 57.4219 -19.4824 57.4219 -25.9766 L 57.4219 -26.2207 C 57.4219 -27.9785 56.4453 -29.4922 54.3457 -29.4922 L 21.4355 -29.4922 C 19.2871 -29.4922 18.8477 -30.4688 20.3125 -32.3242 L 39.0625 -56.1523 C 41.4551 -59.1797 44.7266 -61.6699 48.5352 -61.6699 L 55.8594 -61.6699 L 55.8594 -66.9922 L 49.0723 -66.9922 C 41.2598 -66.9922 38.1348 -63.8672 33.1543 -57.666 L 14.7949 -34.5703 C 12.9883 -32.2754 12.4512 -30.4688 12.4512 -26.709 L 12.4512 1.26953 C 12.4512 10.6934 17.334 15.5273 26.8555 15.5273 Z M 26.9531 9.47266 C 21.4844 9.47266 18.5059 6.5918 18.5059 0.927734 L 18.5059 -23.9746 L 51.6602 -23.9746 C 52.4414 -14.5996 60.0098 -7.91016 69.6289 -7.91016 C 79.248 -7.91016 86.8164 -14.6484 87.5977 -23.9746 L 120.752 -23.9746 L 120.752 0.927734 C 120.752 6.5918 117.676 9.47266 112.305 9.47266 Z"/>
  </g>
  <g id="Thin-M" transform="matrix(1 0 0 1 787.33 1126)">
   <path d="M 69.1406 -31.1523 C 69.6289 -31.1523 70.0195 -31.2988 70.459 -31.6895 L 88.4766 -49.6582 C 88.8184 -50 89.0137 -50.3906 89.0137 -50.8301 C 89.0137 -51.7578 88.2324 -52.4902 87.3535 -52.4902 C 86.9141 -52.4902 86.4258 -52.2949 86.084 -51.9043 L 76.6113 -42.334 L 70.8496 -36.4746 L 70.9473 -43.3105 L 70.9473 -90.2344 C 70.9473 -91.2109 70.1172 -92.041 69.1406 -92.041 C 68.1641 -92.041 67.334 -91.2109 67.334 -90.2344 L 67.334 -43.3105 L 67.4805 -36.4258 L 61.6699 -42.334 L 52.1973 -51.9043 C 51.8555 -52.2949 51.3184 -52.4902 50.8789 -52.4902 C 49.9512 -52.4902 49.2188 -51.7578 49.2188 -50.8301 C 49.2188 -50.3906 49.4141 -50 49.8047 -49.6582 L 67.8711 -31.6895 C 68.2617 -31.2988 68.7012 -31.1523 69.1406 -31.1523 Z M 25.6348 14.5508 L 112.598 14.5508 C 121.24 14.5508 125.732 9.96094 125.732 1.41602 L 125.732 -25.3418 C 125.732 -28.1738 125.342 -29.4922 123.926 -31.25 L 103.711 -57.2754 C 99.6582 -62.4512 96.9727 -64.209 90.2832 -64.209 L 84.1797 -64.209 L 84.1797 -60.9375 L 90.8691 -60.9375 C 94.9707 -60.9375 97.7051 -59.2773 100.098 -56.25 L 120.703 -29.834 C 121.631 -28.5645 121.338 -27.832 120.02 -27.832 L 84.668 -27.832 C 83.1543 -27.832 82.4219 -26.8066 82.4219 -25.3906 L 82.4219 -25.0977 C 82.4219 -17.4805 76.709 -11.5234 69.0918 -11.5234 C 61.4746 -11.5234 55.8105 -17.4805 55.8105 -25.0977 L 55.8105 -25.3906 C 55.8105 -26.8066 55.0293 -27.832 53.5156 -27.832 L 18.2129 -27.832 C 16.8457 -27.832 16.6016 -28.6133 17.5293 -29.834 L 38.1348 -56.25 C 40.5273 -59.2773 43.2617 -60.9375 47.3633 -60.9375 L 54.1504 -60.9375 L 54.1504 -64.209 L 47.9004 -64.209 C 41.2109 -64.209 38.5742 -62.4512 34.5215 -57.2754 L 14.2578 -31.25 C 12.8906 -29.4922 12.4512 -28.1738 12.4512 -25.3418 L 12.4512 1.41602 C 12.4512 10.0586 16.9922 14.5508 25.6348 14.5508 Z M 25.7324 10.9375 C 19.3848 10.9375 16.0645 7.61719 16.0645 1.2207 L 16.0645 -24.4629 L 52.1484 -24.4629 C 52.4414 -14.7461 59.8633 -8.10547 69.0918 -8.10547 C 78.3203 -8.10547 85.7422 -14.8438 86.0352 -24.4629 L 122.119 -24.4629 L 122.119 1.2207 C 122.119 7.61719 118.604 10.9375 112.451 10.9375 Z"/>
  </g>
  <g id="Ultralight-M" transform="matrix(1 0 0 1 490.888 1126)">
   <path d="M 68.8965 -31.1035 C 69.1895 -31.1035 69.4824 -31.2012 69.7266 -31.4453 L 88.2324 -50 C 88.4766 -50.2441 88.5742 -50.4883 88.5742 -50.7812 C 88.5742 -51.3672 88.0371 -51.9043 87.5 -51.9043 C 87.207 -51.9043 86.8164 -51.709 86.5723 -51.5137 L 76.5137 -41.4062 L 70.0195 -34.8633 L 70.1172 -41.5527 L 70.1172 -90.918 C 70.1172 -91.5527 69.5312 -92.0898 68.8965 -92.0898 C 68.2129 -92.0898 67.6758 -91.5527 67.6758 -90.918 L 67.6758 -41.5527 L 67.7734 -34.8145 L 61.2305 -41.4062 L 51.123 -51.5137 C 50.8789 -51.709 50.5371 -51.9043 50.2441 -51.9043 C 49.6094 -51.9043 49.1699 -51.3672 49.1699 -50.7812 C 49.1699 -50.4883 49.2676 -50.2441 49.5117 -50 L 68.0664 -31.4453 C 68.3105 -31.2012 68.6035 -31.1035 68.8965 -31.1035 Z M 25 14.0625 L 112.695 14.0625 C 120.85 14.0625 125.195 9.57031 125.195 1.51367 L 125.195 -24.6094 C 125.195 -27.002 124.854 -28.0273 123.682 -29.5898 L 102.49 -57.0801 C 98.877 -61.6699 96.4844 -62.8418 90.3809 -62.8418 L 84.5215 -62.8418 L 84.5215 -60.5469 L 90.918 -60.5469 C 95.166 -60.5469 97.6562 -59.3262 100 -56.3477 L 121.582 -28.5645 C 122.266 -27.6367 122.07 -26.9531 121.094 -26.9531 L 84.5703 -26.9531 C 83.3496 -26.9531 82.7148 -26.2207 82.7148 -25 L 82.7148 -24.6094 C 82.7148 -16.5039 76.6602 -10.498 68.8477 -10.498 C 61.0352 -10.498 54.9316 -16.5039 54.9316 -24.6094 L 54.9316 -25 C 54.9316 -26.2207 54.3457 -26.9531 53.125 -26.9531 L 16.5527 -26.9531 C 15.5762 -26.9531 15.4297 -27.6367 16.0645 -28.5645 L 37.6465 -56.3477 C 40.0391 -59.3262 42.4805 -60.5469 46.7285 -60.5469 L 53.2715 -60.5469 L 53.2715 -62.8418 L 47.3145 -62.8418 C 41.1621 -62.8418 38.7695 -61.6699 35.2051 -57.0801 L 13.9648 -29.5898 C 12.8418 -28.0273 12.4512 -27.002 12.4512 -24.6094 L 12.4512 1.51367 C 12.4512 9.7168 16.7969 14.0625 25 14.0625 Z M 25.0977 11.6699 C 18.3594 11.6699 14.8438 8.1543 14.8438 1.41602 L 14.8438 -24.707 L 52.4414 -24.707 C 52.4414 -14.8438 59.8145 -8.20312 68.8477 -8.20312 C 77.832 -8.20312 85.2051 -14.9414 85.2539 -24.707 L 122.803 -24.707 L 122.803 1.41602 C 122.803 8.1543 119.043 11.6699 112.549 11.6699 Z"/>
  </g>
  <g id="Black-S" transform="matrix(1 0 0 1 2877.35 696)">
   <path d="M 56.0547 -38.0859 C 57.5195 -38.0859 59.0332 -38.623 60.498 -39.9902 L 70.7031 -49.7559 C 71.582 -50.5859 72.0215 -51.5137 72.0215 -52.832 C 72.0215 -55.3711 69.7754 -57.1289 67.5781 -57.1289 C 66.2109 -57.1289 65.0391 -56.543 64.1602 -55.6152 L 62.1094 -53.418 L 60.9375 -50.4883 L 62.0605 -56.2988 L 62.0605 -78.0273 C 62.0605 -81.2012 59.4727 -83.9844 56.0547 -83.9844 C 52.6367 -83.9844 50.0488 -81.2012 50.0488 -78.0273 L 50.0488 -56.2988 L 51.1719 -50.4883 L 50 -53.418 L 47.9492 -55.6152 C 47.0703 -56.543 45.8984 -57.1289 44.5312 -57.1289 C 42.334 -57.1289 40.0879 -55.3711 40.0879 -52.832 C 40.0879 -51.5137 40.5273 -50.5859 41.4062 -49.7559 L 51.6113 -39.9902 C 53.0762 -38.623 54.5898 -38.0859 56.0547 -38.0859 Z M 25 6.54297 L 87.1094 6.54297 C 96.6797 6.54297 102.344 0.878906 102.344 -8.69141 L 102.344 -30.2734 C 102.344 -36.9141 101.807 -41.0645 99.4629 -44.7266 L 89.4531 -60.3027 C 84.375 -68.1641 80.6641 -70.3125 72.6562 -70.3125 L 69.3848 -70.3125 L 69.3848 -60.0586 L 72.7051 -60.0586 C 74.8535 -60.0586 76.2695 -58.9844 77.3926 -57.1777 L 88.4277 -39.4531 C 88.8184 -38.8184 88.4277 -38.1836 87.2559 -38.1836 L 64.9414 -38.1836 C 62.793 -38.1836 62.0605 -37.2559 62.0605 -36.084 L 62.0605 -35.9863 C 62.0605 -33.2031 60.0098 -29.9805 56.0547 -29.9805 C 52.0996 -29.9805 50.0488 -33.2031 50.0488 -35.9863 L 50.0488 -36.084 C 50.0488 -37.2559 49.3164 -38.1836 47.168 -38.1836 L 24.8535 -38.1836 C 23.6816 -38.1836 23.3398 -38.8184 23.7305 -39.4531 L 34.7656 -57.1777 C 35.8887 -58.9844 37.3047 -60.0586 39.4531 -60.0586 L 42.7246 -60.0586 L 42.7246 -70.3125 L 39.502 -70.3125 C 31.4941 -70.3125 27.8809 -68.3105 22.7051 -60.3027 L 12.6465 -44.7266 C 10.2539 -41.0156 9.76562 -36.9141 9.76562 -30.2734 L 9.76562 -8.69141 C 9.76562 0.878906 15.4297 6.54297 25 6.54297 Z M 26.6602 -7.61719 C 24.4141 -7.61719 23.3398 -8.49609 23.3398 -10.9375 L 23.3398 -26.4648 L 40.2832 -26.4648 C 42.8223 -21.0938 48.5352 -17.0898 56.0547 -17.0898 C 63.5742 -17.0898 69.2871 -21.0938 71.8262 -26.4648 L 88.7695 -26.4648 L 88.7695 -10.9375 C 88.7695 -8.49609 87.6953 -7.61719 85.4492 -7.61719 Z"/>
  </g>
  <g id="Heavy-S" transform="matrix(1 0 0 1 2580.88 696)">
   <path d="M 55.8105 -36.7188 C 57.1289 -36.7188 58.4961 -37.1582 59.8145 -38.4277 L 70.6055 -48.7305 C 71.4355 -49.5117 71.8262 -50.3906 71.8262 -51.6113 C 71.8262 -54.0039 69.7754 -55.6152 67.6758 -55.6152 C 66.4551 -55.6152 65.332 -55.127 64.502 -54.248 L 61.6699 -51.1719 L 60.3027 -48.4375 L 61.2305 -54.248 L 61.2305 -77.5879 C 61.2305 -80.4199 58.8867 -82.9102 55.8105 -82.9102 C 52.7832 -82.9102 50.3906 -80.4199 50.3906 -77.5879 L 50.3906 -54.248 L 51.3184 -48.4375 L 49.9512 -51.1719 L 47.1191 -54.248 C 46.2891 -55.127 45.166 -55.6152 43.9453 -55.6152 C 41.8457 -55.6152 39.7949 -54.0039 39.7949 -51.6113 C 39.7949 -50.3906 40.2344 -49.5117 41.0645 -48.7305 L 51.8066 -38.4277 C 53.1738 -37.1582 54.4922 -36.7188 55.8105 -36.7188 Z M 24.3652 6.29883 L 87.3047 6.29883 C 96.582 6.29883 101.855 0.976562 101.855 -8.25195 L 101.855 -30.1758 C 101.855 -36.1816 101.318 -39.7949 99.1211 -43.1152 L 88.5254 -58.6426 C 83.4961 -66.0156 79.9805 -68.5547 72.168 -68.5547 L 68.2617 -68.5547 L 68.2617 -59.2773 L 72.3145 -59.2773 C 74.5605 -59.2773 76.3672 -57.7637 77.6855 -55.8105 L 89.1602 -38.4766 C 89.8438 -37.5 89.4043 -36.8164 87.9395 -36.8164 L 65.3809 -36.8164 C 63.2324 -36.8164 62.4023 -35.6934 62.4023 -34.375 L 62.4023 -34.2773 C 62.4023 -31.2012 60.1074 -27.6367 55.8105 -27.6367 C 51.5625 -27.6367 49.2188 -31.2012 49.2188 -34.2773 L 49.2188 -34.375 C 49.2188 -35.6934 48.4375 -36.8164 46.2891 -36.8164 L 23.6816 -36.8164 C 22.2168 -36.8164 21.8262 -37.5 22.5098 -38.4766 L 33.9844 -55.8105 C 35.3027 -57.7637 37.1094 -59.2773 39.4043 -59.2773 L 43.3594 -59.2773 L 43.3594 -68.5547 L 39.5508 -68.5547 C 31.6895 -68.5547 28.2715 -66.1133 23.1934 -58.6426 L 12.5488 -43.1152 C 10.2539 -39.7461 9.76562 -36.1816 9.76562 -30.1758 L 9.76562 -8.25195 C 9.76562 0.976562 15.0879 6.29883 24.3652 6.29883 Z M 25.6348 -6.20117 C 23.0957 -6.20117 21.7773 -7.32422 21.7773 -10.0586 L 21.7773 -26.3184 L 40.2344 -26.3184 C 42.4316 -20.5566 48.1934 -16.2598 55.8105 -16.2598 C 63.4277 -16.2598 69.2383 -20.5566 71.4355 -26.3184 L 89.8438 -26.3184 L 89.8438 -10.0586 C 89.8438 -7.32422 88.5742 -6.20117 85.9863 -6.20117 Z"/>
  </g>
  <g id="Bold-S" transform="matrix(1 0 0 1 2284.41 696)">
   <path d="M 55.5664 -35.1562 C 56.7383 -35.1562 57.8613 -35.5469 59.0332 -36.6699 L 70.459 -47.6074 C 71.2402 -48.3398 71.6309 -49.1699 71.6309 -50.293 C 71.6309 -52.4414 69.8242 -53.9551 67.8223 -53.9551 C 66.6992 -53.9551 65.6738 -53.5156 64.9414 -52.6855 L 61.2305 -48.6816 L 59.6191 -46.0938 L 60.3027 -51.9043 L 60.3027 -77.0508 C 60.3027 -79.541 58.2031 -81.7383 55.5664 -81.7383 C 52.9297 -81.7383 50.8301 -79.541 50.8301 -77.0508 L 50.8301 -51.9043 L 51.5137 -46.0938 L 49.9023 -48.6816 L 46.1914 -52.6855 C 45.459 -53.5156 44.3848 -53.9551 43.3105 -53.9551 C 41.2598 -53.9551 39.502 -52.4414 39.502 -50.293 C 39.502 -49.1699 39.8926 -48.3398 40.6738 -47.6074 L 52.0508 -36.6699 C 53.2715 -35.5469 54.3945 -35.1562 55.5664 -35.1562 Z M 23.6328 6.00586 L 87.5 6.00586 C 96.4844 6.00586 101.367 1.12305 101.367 -7.76367 L 101.367 -30.0781 C 101.367 -35.3027 100.83 -38.3301 98.7305 -41.3086 L 87.4512 -56.7383 C 82.5195 -63.623 79.1992 -66.5527 71.582 -66.5527 L 67.041 -66.5527 L 67.041 -58.3496 L 71.8262 -58.3496 C 74.2676 -58.3496 76.5137 -56.4453 78.0273 -54.3457 L 89.9902 -37.4023 C 91.0156 -35.9863 90.5273 -35.2539 88.7695 -35.2539 L 65.8691 -35.2539 C 63.6719 -35.2539 62.793 -33.9355 62.793 -32.5195 L 62.793 -32.373 C 62.793 -29.0039 60.1562 -25.0488 55.5664 -25.0488 C 50.9277 -25.0488 48.3398 -29.0039 48.3398 -32.373 L 48.3398 -32.5195 C 48.3398 -33.9355 47.4121 -35.2539 45.2637 -35.2539 L 22.4121 -35.2539 C 20.5566 -35.2539 20.166 -36.0352 21.1914 -37.4023 L 33.1055 -54.3457 C 34.6191 -56.4453 36.9141 -58.3496 39.3066 -58.3496 L 44.0918 -58.3496 L 44.0918 -66.5527 L 39.5508 -66.5527 C 31.9336 -66.5527 28.7109 -63.6719 23.6816 -56.7383 L 12.4023 -41.3086 C 10.2539 -38.3301 9.76562 -35.3027 9.76562 -30.0781 L 9.76562 -7.76367 C 9.76562 1.12305 14.6973 6.00586 23.6328 6.00586 Z M 24.5117 -4.58984 C 21.6309 -4.58984 20.0684 -6.00586 20.0684 -9.08203 L 20.0684 -26.2207 L 40.1367 -26.2207 C 41.9922 -20.0195 47.8516 -15.332 55.5664 -15.332 C 63.2812 -15.332 69.1406 -20.0195 70.9961 -26.2207 L 91.0645 -26.2207 L 91.0645 -9.08203 C 91.0645 -6.00586 89.502 -4.58984 86.6211 -4.58984 Z"/>
  </g>
  <g id="Semibold-S" transform="matrix(1 0 0 1 1987.9 696)">
   <path d="M 55.3711 -34.082 C 56.4453 -34.082 57.4707 -34.4238 58.5449 -35.498 L 70.3613 -46.8262 C 71.0938 -47.5098 71.4844 -48.291 71.4844 -49.3652 C 71.4844 -51.3672 69.8242 -52.7832 67.9199 -52.7832 C 66.8945 -52.7832 65.918 -52.3926 65.1855 -51.6113 L 60.8887 -46.9238 L 59.1309 -44.5312 L 59.668 -50.3418 L 59.668 -76.709 C 59.668 -78.9551 57.7637 -80.9082 55.3711 -80.9082 C 53.0273 -80.9082 51.123 -78.9551 51.123 -76.709 L 51.123 -50.3418 L 51.6602 -44.4824 L 49.8535 -46.9238 L 45.5566 -51.6113 C 44.873 -52.3926 43.8477 -52.7832 42.8223 -52.7832 C 40.8691 -52.7832 39.2578 -51.3672 39.2578 -49.3652 C 39.2578 -48.291 39.6484 -47.5098 40.3809 -46.8262 L 52.2461 -35.498 C 53.3203 -34.4238 54.2969 -34.082 55.3711 -34.082 Z M 23.0957 5.81055 L 87.6465 5.81055 C 96.3867 5.81055 100.977 1.2207 100.977 -7.42188 L 100.977 -30.0293 C 100.977 -34.7168 100.488 -37.3535 98.4375 -40.0879 L 86.7188 -55.4199 C 81.8359 -61.9629 78.6621 -65.1855 71.1914 -65.1855 L 66.1621 -65.1855 L 66.1621 -57.7148 L 71.5332 -57.7148 C 74.0234 -57.7148 76.6113 -55.5176 78.2715 -53.2715 L 90.5273 -36.6699 C 91.8457 -34.9609 91.3086 -34.1797 89.3066 -34.1797 L 66.2109 -34.1797 C 64.0137 -34.1797 63.0859 -32.7148 63.0859 -31.2012 L 63.0859 -31.1035 C 63.0859 -27.4414 60.2539 -23.2422 55.3711 -23.2422 C 50.5371 -23.2422 47.7051 -27.4414 47.7051 -31.1035 L 47.7051 -31.2012 C 47.7051 -32.7148 46.7285 -34.1797 44.5801 -34.1797 L 21.4844 -34.1797 C 19.4336 -34.1797 18.9941 -35.0586 20.2637 -36.6699 L 32.5195 -53.2715 C 34.1797 -55.5176 36.7676 -57.7148 39.2578 -57.7148 L 44.5801 -57.7148 L 44.5801 -65.1855 L 39.5508 -65.1855 C 32.1289 -65.1855 29.0039 -62.0117 24.0234 -55.4199 L 12.3047 -40.0879 C 10.3027 -37.3047 9.76562 -34.7168 9.76562 -30.0293 L 9.76562 -7.42188 C 9.76562 1.2207 14.4043 5.81055 23.0957 5.81055 Z M 23.6816 -3.51562 C 20.6055 -3.51562 18.8965 -5.07812 18.8965 -8.39844 L 18.8965 -26.123 L 40.0879 -26.123 C 41.6504 -19.6289 47.6074 -14.6973 55.3711 -14.6973 C 63.1836 -14.6973 69.0918 -19.6289 70.6543 -26.123 L 91.8945 -26.123 L 91.8945 -8.39844 C 91.8945 -5.07812 90.1855 -3.51562 87.0605 -3.51562 Z"/>
  </g>
  <g id="Medium-S" transform="matrix(1 0 0 1 1691.31 696)">
   <path d="M 55.2246 -33.252 C 56.25 -33.252 57.1289 -33.5938 58.1055 -34.5703 L 70.3125 -46.1914 C 70.9961 -46.9238 71.3867 -47.6562 71.3867 -48.6328 C 71.3867 -50.5859 69.873 -51.9531 67.9688 -51.9531 C 67.041 -51.9531 66.0645 -51.5625 65.4297 -50.8301 L 60.6445 -45.6543 L 58.7402 -43.3105 L 59.1797 -49.1211 L 59.1797 -76.416 C 59.1797 -78.5156 57.4219 -80.2734 55.2246 -80.2734 C 53.0762 -80.2734 51.3184 -78.5156 51.3184 -76.416 L 51.3184 -49.1211 L 51.7578 -43.3105 L 49.8535 -45.6543 L 45.0684 -50.8301 C 44.4336 -51.5625 43.4082 -51.9531 42.4805 -51.9531 C 40.5762 -51.9531 39.1113 -50.5859 39.1113 -48.6328 C 39.1113 -47.6562 39.502 -46.9238 40.1855 -46.1914 L 52.3438 -34.5703 C 53.3691 -33.5938 54.248 -33.252 55.2246 -33.252 Z M 22.7051 5.66406 L 87.7441 5.66406 C 96.3379 5.66406 100.732 1.26953 100.732 -7.12891 L 100.732 -29.9805 C 100.732 -34.2773 100.195 -36.5723 98.2422 -39.1113 L 86.1816 -54.4434 C 81.2988 -60.6934 78.2227 -64.1113 70.8984 -64.1113 L 65.5273 -64.1113 L 65.5273 -57.2754 L 71.2891 -57.2754 C 73.877 -57.2754 76.6602 -54.7852 78.418 -52.4902 L 90.9668 -36.084 C 92.4316 -34.1797 91.8945 -33.3984 89.6973 -33.3984 L 66.4551 -33.3984 C 64.2578 -33.3984 63.2812 -31.8359 63.2812 -30.2246 L 63.2812 -30.0781 C 63.2812 -26.2695 60.2539 -21.875 55.2246 -21.875 C 50.1953 -21.875 47.2168 -26.2695 47.2168 -30.0781 L 47.2168 -30.2246 C 47.2168 -31.8359 46.2402 -33.3984 44.043 -33.3984 L 20.8008 -33.3984 C 18.5547 -33.3984 18.1152 -34.2773 19.5312 -36.084 L 32.0801 -52.4902 C 33.8379 -54.7852 36.6211 -57.2754 39.209 -57.2754 L 44.9707 -57.2754 L 44.9707 -64.1113 L 39.5996 -64.1113 C 32.2266 -64.1113 29.1992 -60.7422 24.3164 -54.4434 L 12.2559 -39.1113 C 10.3027 -36.5723 9.76562 -34.2773 9.76562 -29.9805 L 9.76562 -7.12891 C 9.76562 1.31836 14.209 5.66406 22.7051 5.66406 Z M 23.0957 -2.68555 C 19.8242 -2.68555 17.9688 -4.39453 17.9688 -7.86133 L 17.9688 -26.0254 L 40.0391 -26.0254 C 41.4062 -19.2871 47.4121 -14.209 55.2246 -14.209 C 63.0859 -14.209 69.043 -19.2871 70.459 -26.0254 L 92.4805 -26.0254 L 92.4805 -7.86133 C 92.4805 -4.39453 90.6738 -2.68555 87.4023 -2.68555 Z"/>
  </g>
  <g id="Regular-S" transform="matrix(1 0 0 1 1394.79 696)">
   <path d="M 55.0781 -32.2266 C 55.957 -32.2266 56.6895 -32.5195 57.6172 -33.3984 L 70.2148 -45.459 C 70.8496 -46.0938 71.2402 -46.7773 71.2402 -47.7539 C 71.2402 -49.5117 69.873 -50.7812 68.0664 -50.7812 C 67.1875 -50.7812 66.3086 -50.4395 65.6738 -49.7559 L 60.3516 -43.9453 L 58.252 -41.6992 L 58.5449 -47.5586 L 58.5449 -76.0742 C 58.5449 -77.9297 56.9336 -79.4434 55.0781 -79.4434 C 53.1738 -79.4434 51.6113 -77.9297 51.6113 -76.0742 L 51.6113 -47.5586 L 51.8555 -41.6992 L 49.8047 -43.9453 L 44.4336 -49.7559 C 43.8477 -50.4395 42.8711 -50.7812 42.041 -50.7812 C 40.2344 -50.7812 38.916 -49.5117 38.916 -47.7539 C 38.916 -46.7773 39.2578 -46.0938 39.9414 -45.459 L 52.5391 -33.3984 C 53.418 -32.5195 54.1992 -32.2266 55.0781 -32.2266 Z M 22.2168 5.46875 L 87.8906 5.46875 C 96.2402 5.46875 100.342 1.36719 100.342 -6.83594 L 100.342 -29.9316 C 100.342 -33.6914 99.8535 -35.5957 97.998 -37.8906 L 85.4492 -53.1738 C 80.6152 -59.082 77.7344 -62.7441 70.5078 -62.7441 L 64.6973 -62.7441 L 64.6973 -56.6406 L 70.9473 -56.6406 C 73.6328 -56.6406 76.7578 -53.8574 78.6621 -51.4648 L 91.5039 -35.3516 C 93.2617 -33.1543 92.627 -32.3242 90.2344 -32.3242 L 66.748 -32.3242 C 64.5996 -32.3242 63.5254 -30.6152 63.5254 -28.9062 L 63.5254 -28.8086 C 63.5254 -24.7559 60.3516 -20.0684 55.0781 -20.0684 C 49.8047 -20.0684 46.582 -24.7559 46.582 -28.8086 L 46.582 -28.9062 C 46.582 -30.6152 45.5566 -32.3242 43.3594 -32.3242 L 19.9219 -32.3242 C 17.4316 -32.3242 16.9922 -33.3008 18.6035 -35.3516 L 31.4941 -51.4648 C 33.3984 -53.8574 36.4746 -56.6406 39.1602 -56.6406 L 45.459 -56.6406 L 45.459 -62.7441 L 39.5996 -62.7441 C 32.4219 -62.7441 29.4922 -59.082 24.6582 -53.1738 L 12.1582 -37.8906 C 10.3027 -35.5957 9.76562 -33.6914 9.76562 -29.9316 L 9.76562 -6.83594 C 9.76562 1.36719 13.916 5.46875 22.2168 5.46875 Z M 22.3145 -1.61133 C 18.7988 -1.61133 16.7969 -3.4668 16.7969 -7.17773 L 16.7969 -25.9277 L 39.9902 -25.9277 C 41.1133 -18.8965 47.168 -13.623 55.0781 -13.623 C 62.9883 -13.623 68.9941 -18.8965 70.1172 -25.9277 L 93.3105 -25.9277 L 93.3105 -7.17773 C 93.3105 -3.4668 91.3086 -1.61133 87.793 -1.61133 Z"/>
  </g>
  <g id="Light-S" transform="matrix(1 0 0 1 1098.42 696)">
   <path d="M 54.7363 -32.1289 C 55.4199 -32.1289 56.0059 -32.373 56.6895 -33.0566 L 69.873 -45.8496 C 70.3613 -46.3867 70.6543 -46.9238 70.6543 -47.6562 C 70.6543 -49.0234 69.5801 -50 68.2129 -50 C 67.5293 -50 66.8457 -49.7559 66.3574 -49.2188 L 60.2051 -42.7246 L 57.2266 -39.5996 L 57.4219 -45.2637 L 57.4219 -76.9531 C 57.4219 -78.3691 56.2012 -79.541 54.7363 -79.541 C 53.2715 -79.541 52.0508 -78.3691 52.0508 -76.9531 L 52.0508 -45.2637 L 52.2461 -39.5996 L 49.2188 -42.7246 L 43.0664 -49.2188 C 42.5781 -49.7559 41.8457 -50 41.2109 -50 C 39.7949 -50 38.7695 -49.0234 38.7695 -47.6562 C 38.7695 -46.9238 39.0625 -46.3867 39.5996 -45.8496 L 52.7832 -33.0566 C 53.4668 -32.373 54.0527 -32.1289 54.7363 -32.1289 Z M 21.3867 4.78516 L 88.0371 4.78516 C 95.752 4.78516 99.6582 0.927734 99.6582 -6.68945 L 99.6582 -28.9551 C 99.6582 -32.1777 99.2188 -33.7402 97.6562 -35.6934 L 83.8379 -52.9297 C 79.6387 -58.1055 77.0508 -60.9375 70.6055 -60.9375 L 65.1855 -60.9375 L 65.1855 -56.1523 L 71.0449 -56.1523 C 73.9258 -56.1523 76.6602 -53.9551 78.5645 -51.5625 L 92.6758 -33.6914 C 94.043 -31.9336 93.6035 -31.2012 91.6992 -31.2012 L 66.6016 -31.2012 C 64.7949 -31.2012 63.9648 -29.8828 63.9648 -28.3691 L 63.9648 -28.2227 C 63.9648 -23.4375 60.2539 -18.75 54.7363 -18.75 C 49.1699 -18.75 45.5078 -23.4375 45.5078 -28.2227 L 45.5078 -28.3691 C 45.5078 -29.8828 44.6289 -31.2012 42.8223 -31.2012 L 17.7734 -31.2012 C 15.8203 -31.2012 15.4297 -32.0312 16.748 -33.6914 L 30.8594 -51.5625 C 32.7637 -53.9551 35.498 -56.1523 38.3789 -56.1523 L 44.2871 -56.1523 L 44.2871 -60.9375 L 38.8184 -60.9375 C 32.373 -60.9375 29.7852 -58.1055 25.5859 -52.9297 L 11.7676 -35.6934 C 10.2051 -33.7402 9.76562 -32.1777 9.76562 -28.9551 L 9.76562 -6.68945 C 9.76562 0.927734 13.6719 4.78516 21.3867 4.78516 Z M 21.4844 -0.634766 C 17.4316 -0.634766 15.1855 -2.7832 15.1855 -6.98242 L 15.1855 -26.2695 L 40.332 -26.2695 C 41.1133 -18.9941 47.0703 -13.7695 54.7363 -13.7695 C 62.3535 -13.7695 68.3105 -19.043 69.0918 -26.2695 L 94.2383 -26.2695 L 94.2383 -6.98242 C 94.2383 -2.7832 91.9434 -0.634766 87.9395 -0.634766 Z"/>
  </g>
  <g id="Thin-S" transform="matrix(1 0 0 1 802.174 696)">
   <path d="M 54.2969 -32.0312 C 54.6875 -32.0312 55.0781 -32.1777 55.4688 -32.5684 L 69.4336 -46.4355 C 69.7266 -46.7285 69.9219 -47.0703 69.9219 -47.5098 C 69.9219 -48.3398 69.2383 -48.9746 68.4082 -48.9746 C 68.0176 -48.9746 67.5781 -48.7793 67.2363 -48.4863 L 60.0586 -41.1621 L 55.8105 -36.8164 L 55.9082 -42.1875 L 55.9082 -78.0762 C 55.9082 -78.9551 55.1758 -79.6875 54.2969 -79.6875 C 53.3691 -79.6875 52.6367 -78.9551 52.6367 -78.0762 L 52.6367 -42.1875 L 52.7344 -36.7676 L 48.4863 -41.1621 L 41.2598 -48.4863 C 40.9668 -48.7793 40.5273 -48.9746 40.0879 -48.9746 C 39.2578 -48.9746 38.623 -48.3398 38.623 -47.5098 C 38.623 -47.0703 38.8184 -46.7285 39.1113 -46.4355 L 53.125 -32.5684 C 53.4668 -32.1777 53.8574 -32.0312 54.2969 -32.0312 Z M 20.3125 3.95508 L 88.1836 3.95508 C 95.1172 3.95508 98.7305 0.292969 98.7305 -6.54297 L 98.7305 -27.7344 C 98.7305 -30.127 98.3887 -31.25 97.2168 -32.7637 L 81.7383 -52.5879 C 78.3691 -56.8359 76.1719 -58.4961 70.7031 -58.4961 L 65.8203 -58.4961 L 65.8203 -55.5176 L 71.1426 -55.5176 C 74.3164 -55.5176 76.5625 -54.0527 78.4668 -51.6602 L 94.2383 -31.4941 C 95.0684 -30.3711 94.8242 -29.7363 93.6035 -29.7363 L 66.4062 -29.7363 C 65.0879 -29.7363 64.4531 -28.8574 64.4531 -27.6855 L 64.4531 -27.4414 C 64.4531 -21.7285 60.1562 -17.041 54.248 -17.041 C 48.3887 -17.041 44.043 -21.7285 44.043 -27.4414 L 44.043 -27.6855 C 44.043 -28.8574 43.4082 -29.7363 42.0898 -29.7363 L 14.8926 -29.7363 C 13.6719 -29.7363 13.4277 -30.3711 14.2578 -31.4941 L 30.0781 -51.6602 C 31.9336 -54.0527 34.1797 -55.5176 37.3535 -55.5176 L 42.7734 -55.5176 L 42.7734 -58.4961 L 37.793 -58.4961 C 32.3242 -58.4961 30.127 -56.8359 26.7578 -52.5879 L 11.2793 -32.7637 C 10.1074 -31.25 9.76562 -30.127 9.76562 -27.7344 L 9.76562 -6.54297 C 9.76562 0.390625 13.3789 3.95508 20.3125 3.95508 Z M 20.4102 0.634766 C 15.625 0.634766 13.0859 -1.85547 13.0859 -6.73828 L 13.0859 -26.6602 L 40.7715 -26.6602 C 41.1133 -19.1406 46.9727 -13.916 54.248 -13.916 C 61.5723 -13.916 67.3828 -19.2383 67.7246 -26.6602 L 95.4102 -26.6602 L 95.4102 -6.73828 C 95.4102 -1.85547 92.7246 0.634766 88.0859 0.634766 Z"/>
  </g>
  <g id="Ultralight-S" transform="matrix(1 0 0 1 505.707 696)">
   <path d="M 54.0527 -31.9824 C 54.3457 -31.9824 54.5898 -32.0801 54.834 -32.3242 L 69.1895 -46.7285 C 69.4336 -46.9238 69.5312 -47.168 69.5312 -47.4121 C 69.5312 -47.998 69.043 -48.4375 68.5059 -48.4375 C 68.2617 -48.4375 67.9199 -48.291 67.7246 -48.0957 L 59.9609 -40.332 L 55.0781 -35.4004 L 55.1758 -40.625 L 55.1758 -78.6621 C 55.1758 -79.2969 54.6387 -79.7852 54.0527 -79.7852 C 53.4668 -79.7852 52.9785 -79.2969 52.9785 -78.6621 L 52.9785 -40.625 L 53.0273 -35.3516 L 48.0957 -40.332 L 40.332 -48.0957 C 40.1367 -48.291 39.7949 -48.4375 39.5508 -48.4375 C 38.9648 -48.4375 38.5254 -47.998 38.5254 -47.4121 C 38.5254 -47.168 38.6719 -46.9238 38.8672 -46.7285 L 53.2715 -32.3242 C 53.5156 -32.0801 53.7598 -31.9824 54.0527 -31.9824 Z M 19.7754 3.51562 L 88.2812 3.51562 C 94.8242 3.51562 98.2422 -0.0488281 98.2422 -6.44531 L 98.2422 -27.0996 C 98.2422 -29.1016 97.9492 -29.9805 96.9727 -31.25 L 80.6152 -52.3926 C 77.6855 -56.1523 75.7324 -57.2266 70.8008 -57.2266 L 66.1133 -57.2266 L 66.1133 -55.1758 L 71.2402 -55.1758 C 74.5117 -55.1758 76.5137 -54.1016 78.3691 -51.7578 L 95.0195 -30.3223 C 95.6055 -29.541 95.459 -29.0039 94.5801 -29.0039 L 66.3086 -29.0039 C 65.2344 -29.0039 64.7461 -28.3203 64.7461 -27.3438 L 64.7461 -27.0508 C 64.7461 -20.8008 60.0586 -16.1133 54.0039 -16.1133 C 47.9492 -16.1133 43.3105 -20.8008 43.3105 -27.0508 L 43.3105 -27.3438 C 43.3105 -28.3203 42.7734 -29.0039 41.748 -29.0039 L 13.4277 -29.0039 C 12.5488 -29.0039 12.4023 -29.541 12.9883 -30.3223 L 29.6387 -51.7578 C 31.4941 -54.1016 33.4961 -55.1758 36.8164 -55.1758 L 41.9922 -55.1758 L 41.9922 -57.2266 L 37.2559 -57.2266 C 32.2754 -57.2266 30.3223 -56.1523 27.3926 -52.3926 L 11.0352 -31.25 C 10.0586 -29.9805 9.76562 -29.1016 9.76562 -27.0996 L 9.76562 -6.44531 C 9.76562 0.0488281 13.2324 3.51562 19.7754 3.51562 Z M 19.873 1.31836 C 14.6484 1.31836 11.9629 -1.36719 11.9629 -6.5918 L 11.9629 -26.9043 L 41.0156 -26.9043 C 41.1133 -19.2383 46.875 -14.0625 54.0039 -14.0625 C 61.1328 -14.0625 66.8945 -19.3359 66.9922 -26.9043 L 96.0449 -26.9043 L 96.0449 -6.5918 C 96.0449 -1.36719 93.1641 1.31836 88.1836 1.31836 Z"/>
  </g>
 </g>
</svg>
